<svg width="300" height="300" viewBox="0 0 300 300" fill="none" xmlns="http://www.w3.org/2000/svg">
<path id="bird" d="M170.382 174.5C169.163 173.77 168.026 172.904 166.753 172.309C162.175 170.225 157.732 167.546 152.911 166.329C145.543 164.462 139.476 168.196 136.604 175.231C134.112 181.319 133.543 181.427 129.399 176.043C126.257 171.984 122.952 168.114 117.643 166.843C111.792 165.436 106.862 167.573 102.149 170.847C100.849 171.74 99.1695 172.119 97.6797 172.714C98.1131 171.037 98.2485 169.197 99.0611 167.736C105.047 156.966 115.801 154.206 125.959 161.16C129.914 163.866 133.191 163.92 137.281 161.729C149.444 155.207 163.177 159.239 170.193 171.145C170.68 171.957 170.816 172.985 171.114 173.905L170.382 174.5Z" fill="black"/>
<path id="bird" d="M155.105 119.598C152.911 118.489 133.299 116.27 130.699 116.622C130.238 108.964 139.204 102.903 146.68 106.475C151.014 108.558 154.048 108.125 157.895 105.582C163.773 101.712 175.068 105.392 178.21 111.751C178.427 112.157 178.291 112.725 178.373 113.726C168.811 109.126 159.249 104.066 155.132 119.598H155.105Z" fill="black"/>
<path  id="bird"d="M232.44 161.377C231.356 160.592 230.571 160.024 229.812 159.456C227.997 158.103 226.345 156.506 224.395 155.451C218.788 152.393 214.968 153.449 211.447 158.752C209.768 161.269 209.036 161.242 207.438 158.536C206.842 157.507 206.327 156.452 205.677 155.451C202.725 150.716 198.337 149.282 193.109 151.23C191.592 151.798 190.048 152.312 188.071 153.016C190.508 144.79 199.718 141.922 205.759 147.225C208.928 150.012 211.555 150.256 215.348 149.038C222.553 146.711 232.413 153.692 232.44 161.377Z" fill="black"/>
<path id="bird" d="M287.914 192.467C286.424 191.629 285.53 191.196 284.664 190.654C280.14 187.84 277.052 188.3 273.558 192.332C271.607 194.605 269.937 194.479 268.547 191.953C266.732 188.625 263.86 187.624 259.635 189.139C257.495 189.897 255.49 191.114 253.242 192.197C253.73 187.38 261.07 182.537 265.594 184.458C269.765 186.217 273.07 186.298 277.296 184.458C281.982 182.401 286.803 186.136 287.887 192.467H287.914Z" fill="black"/>
<path id="bird" d="M64.8497 176.587C62.6556 175.721 61.3013 175.261 59.974 174.665C52.525 171.337 46.8366 173.123 42.6922 180.212C42.6381 180.294 42.5839 180.402 42.5297 180.51C40.3809 184.208 38.0061 184.352 35.4057 180.943C32.4532 177.074 28.1192 175.531 23.6498 177.507C20.3722 178.968 17.4468 181.268 14.3859 183.27C13.465 183.865 12.6523 184.677 11.7855 185.381C11.5147 185.245 11.2709 185.11 11 184.975C11.1625 184.136 11.1354 183.216 11.5147 182.485C14.088 177.561 17.7448 173.691 22.8643 171.391C26.3315 169.849 29.907 170.282 33.2658 171.689C36.9768 173.258 39.7668 172.744 42.8818 169.903C49.7891 163.571 59.8656 165.736 64.1725 174.097C64.3892 174.53 64.4434 175.071 64.8497 176.587Z" fill="black"/>
<path id="bird" d="M63.9829 123.535C56.9402 116.852 51.8749 120.099 47.3784 126.674C45.1572 123.319 44.2633 118.881 39.821 119.503C36.4622 119.99 33.2388 121.506 29.9612 122.561C30.8822 117.447 38.7104 113.307 43.6132 115.688C46.7554 117.23 49.1661 117.582 52.4979 115.769C57.8883 112.82 64.6601 117.149 63.9558 123.508L63.9829 123.535Z" fill="black"/>
</svg>
