<svg width="300" height="300" viewBox="0 0 300 300" fill="none" xmlns="http://www.w3.org/2000/svg">
<path d="M91.5593 49.1791C87.6753 32.0849 90.6669 22.0492 100.125 19.2039V44.9512C104.126 39.0776 108.163 32.3482 113.006 26.2698C118.089 19.8841 125.016 15.6124 132.572 12.5622C133.925 12.0136 135.703 12.5037 137.283 12.5476C138.695 12.5841 140.223 13.0303 141.511 12.6573C149.835 10.2362 157.12 12.0941 163.681 17.58C159.883 20.2767 155.447 21.7005 150.376 21.8517C149.074 21.8883 147.779 21.9688 145.804 22.0639C148.379 23.9876 150.427 25.5237 152.483 27.0597L152.3 28.0106C148.189 28.2959 144.085 28.5812 139.653 28.8884C140.538 29.9051 141.284 30.7609 142.235 31.8581C139.375 32.7212 136.866 33.5185 134.328 34.2354C130.371 35.3545 126.53 36.4078 123.224 39.3044C121.191 41.0891 118.06 41.6304 115.317 42.7715C116.122 43.4664 116.999 44.2271 118.009 45.0975C117.131 46.0631 116.334 46.9481 114.944 48.4842C139.682 39.7652 162.76 41.8937 185.713 54.6504H181.405C191.601 66.5878 195.778 75.3068 195.331 84.7865C191.703 80.4929 188.544 76.7624 185.223 72.8272C184.652 73.6318 184.06 74.4656 183.321 75.497C180.49 71.4301 177.806 67.568 174.858 63.3328C175.033 65.871 175.172 67.9556 175.377 70.9693C173.073 69.1333 171.442 67.8313 169.621 66.383V69.4405C169.189 69.4405 168.794 69.5575 168.538 69.4186C167.463 68.8553 166.373 68.2848 165.386 67.5826C161.999 65.1615 158.473 63.5084 154.15 62.9744C150.8 62.5648 147.648 60.5825 144.129 59.1854C143.683 59.8145 142.879 60.9629 141.942 62.2868C137.853 59.8291 133.925 57.4592 129.588 54.8552C129.91 57.2105 130.188 59.2147 130.488 61.4018C126.231 61.1531 122.368 60.7288 118.521 60.7581C114.659 60.7873 110.804 61.2701 106.218 61.6066C107.242 63.5669 107.907 64.9274 108.646 66.244C137.546 117.914 157.427 172.862 168.538 230.998C170.184 239.607 171.588 248.268 172.861 256.936C173.256 259.598 174.558 260.505 176.943 260.534C180.732 260.586 184.542 257.755 185.866 253.11C186.92 249.394 187.498 245.481 187.768 241.619C190.321 204.87 199.486 169.87 215.117 136.537C215.315 136.113 215.461 135.667 215.929 134.46C211.35 134.789 207.225 135.082 202.887 135.389C202.646 134.306 202.397 133.18 202.076 131.702C200.547 132.814 199.398 133.985 198.016 134.562C196.538 135.177 194.819 135.206 193.21 135.535C192.069 135.769 190.862 135.901 189.824 136.376C185.076 138.556 180.351 140.794 175.67 143.12C173.512 144.196 172.473 143.611 172.429 141.555C168.56 145.454 164.669 149.367 160.726 153.332C159.388 146.156 164.215 135.148 170.367 131.505C182.231 124.476 194.893 122.442 208.359 125.587C209.383 125.829 210.422 126.041 211.482 126.275C211.424 122.64 209.558 121.242 206.274 120.284C199.559 118.331 193.035 115.749 186.386 113.409C186.854 112.867 187.622 111.975 188.346 111.134C184.66 110.351 180.907 109.561 176.548 108.639C188.96 97.7846 209.127 104.514 221.642 122.464C221.203 116.993 220.764 111.521 220.325 106.05C226.755 107.689 229.754 114.74 227.955 124.461C238.407 117.812 249.204 114.776 260.841 120.357C266.824 123.225 271.286 127.716 274 135.294C269.721 133.538 266.327 132.149 262.911 130.744C263.079 131.717 263.291 132.975 263.445 133.86C255.055 132.032 246.629 130.196 237.844 128.286C238.561 132.214 241.516 132.785 244.083 133.516C251.31 135.557 257.659 139.039 262.531 144.774C270.226 153.836 272.881 164.113 269.289 176.38C262.004 161.824 249.606 152.242 240.046 139.836C239.278 141.094 238.802 141.884 238.444 142.477C235.094 140.429 231.846 138.439 228.927 136.654C231.612 144.525 234.333 152.212 236.82 159.981C237.515 162.153 237.822 164.56 237.734 166.834C237.676 168.334 236.564 169.775 235.971 171.267C235.628 172.137 235.401 173.059 235.108 173.951C233.726 178.15 232.336 182.349 230.946 186.547C230.595 186.452 230.244 186.357 229.893 186.262C227.384 170.126 224.875 153.997 222.366 137.861C221.986 137.876 221.613 137.89 221.232 137.905C205.214 176.139 197.211 216.003 196.985 256.848C206.698 259.649 216.068 261.814 225.029 265.106C231.714 267.556 237.939 271.331 244.222 274.783C245.722 275.602 246.643 277.468 247.836 278.85C246.263 280.035 244.844 281.864 243.081 282.288C234.808 284.278 226.514 286.391 218.095 287.533C191.989 291.073 166.058 289.23 140.304 284.095C134.54 282.946 132.097 280.979 131.687 277.153C131.131 272.004 133.794 266.591 138.629 265.113C142.732 263.862 147.201 263.519 151.532 263.358C158.949 263.087 159.57 262.656 158.685 255.304C153.207 209.749 142.718 165.386 126.048 122.632C119.377 105.523 111.382 88.9266 103.972 72.1103C103.46 70.94 102.795 69.8355 102.195 68.7017C101.712 68.7456 101.237 68.7968 100.754 68.8407C100.176 79.3006 99.5981 89.7678 99.0202 100.264C98.7422 100.016 98.1644 99.4889 97.2501 98.6623C97.9084 103.863 98.4935 108.544 99.1299 113.555C98.1571 113.101 97.5939 112.838 97.4841 112.787V140.092C97.0087 140.151 96.5332 140.217 96.0651 140.275C90.1915 133.304 87.2656 125.046 86.0148 115.479C84.9542 116.737 84.1716 117.666 83.3596 118.624C80.4704 108.917 83.8131 90.1701 92.4736 67.2169C85.0639 66.2148 83.7327 74.0268 78.3199 76.9087C77.4056 75.1386 76.4547 73.288 74.9625 70.3987C74.0335 73.3611 73.3533 75.5409 72.6584 77.7206C71.6636 80.8513 71.0126 84.2379 66.4263 83.9234C65.7241 83.8722 64.744 85.1815 64.1881 86.0446C59.6823 93.1032 55.2497 100.206 50.7219 107.411C50.2684 107.016 49.6686 106.496 48.7689 105.714C48.3959 108.917 48.8201 112.487 44.3363 112.121C44.168 119.385 44.0729 119.553 39.6037 120.679C39.0917 123.978 38.5797 127.292 38.0677 130.598C37.5922 130.715 37.1168 130.839 36.6413 130.956C35.6685 128.557 34.2129 126.238 33.7959 123.737C29.5462 98.5672 43.8096 66.756 76.2206 60.919C76.8204 60.8093 77.4056 60.641 77.7932 60.546C77.6543 58.4467 77.5226 56.4498 77.3836 54.3359C76.0743 54.9576 74.8235 55.7476 73.4557 56.1791C70.0544 57.2544 66.5946 58.1468 63.1787 59.1708C60.8599 59.8584 58.5046 60.4801 56.2956 61.431C54.189 62.338 52.258 63.6327 50.0124 64.8835V61.058C46.5087 63.7132 43.3049 66.1489 40.1011 68.5774C39.8085 68.4018 39.516 68.2336 39.2234 68.058C39.9475 65.3663 40.6643 62.6745 41.5494 59.3829C38.6089 61.826 35.5807 63.6035 33.5911 66.1855C31.1481 69.36 27.9662 67.5314 25.0989 68.4311C24.5357 64.6129 26.474 61.6431 28.4929 58.8051C42.1785 39.5531 68.5842 34.645 89.0577 47.4894C89.7672 47.9356 90.4621 48.4037 91.5886 49.1425L91.5593 49.1791Z" fill="black"/>
</svg>
