                        <svg id="radio" width="300" height="300" viewBox="0 0 570 570" fill="none"
                            xmlns="http://www.w3.org/2000/svg"
                            >
                            <g id="radio-body">
                                <path
                                    d="M31.69 285.46C30.2 285.19 28.92 284.93 27.64 284.73C23.48 284.08 21.23 281.77 20.71 277.49C18.01 255.23 18.07 232.95 20.2 210.67C21.05 201.72 21.5 201.57 31.54 199.55C31.95 195.05 32.34 190.44 32.8 185.84C33.78 176.05 36.21 173.4 45.75 171.7C49.18 171.09 52.62 170.56 56.65 169.9C56.65 165.05 56.87 160.29 56.61 155.55C55.82 141.03 57.73 127.11 63.76 113.68C66.13 108.4 69.59 106.34 74.85 106.25C81.51 106.13 88.18 106.06 94.84 106.05C230.16 105.95 365.48 105.86 500.8 105.77C513.52 105.77 516.42 107.87 520.76 120.19C524.72 131.44 524.43 143.11 524.29 154.78C524.23 159.58 524.29 164.38 524.29 169.67C526.59 169.78 528.35 169.93 530.1 169.94C543.33 169.99 549.25 175.88 549.26 189.23C549.32 240.06 549.34 290.88 549.36 341.71C549.37 371.36 548.95 401.03 549.57 430.67C549.84 443.8 541.14 458.03 522.44 457.89C498.78 457.72 475.13 457.37 451.47 457.39C424.48 457.42 397.49 457.77 370.5 457.98C365 458.02 359.5 458.05 354 458.06C258.34 458.15 162.69 458.26 67.03 458.28C61.73 458.28 56.29 458.24 51.16 457.1C40.61 454.75 34.72 447.53 32.95 437C32.46 434.06 32.45 431.03 32.43 428.03C32.24 382.04 32.09 336.05 31.91 290.06C31.91 288.59 31.77 287.12 31.68 285.48L31.69 285.46ZM340 164.51C344.07 154.79 344.67 154.56 355.01 155.65C358.19 155.99 359.71 157.28 359.31 160.34C358.71 164.99 360.91 165.83 365.09 165.78C384.25 165.59 403.41 165.7 422.57 165.71C425.5 165.71 428.44 165.71 431.2 165.71C433.1 155.34 433.15 154.64 441.38 154.25C453.82 153.65 466.31 153.89 478.77 154.02C483.66 154.07 485.66 157.41 486.05 161.92C486.27 164.51 486.47 167.09 486.66 169.57H504.91C504.91 160.08 504.92 150.95 504.91 141.81C504.89 133.21 503.71 132.03 495.09 132.03C474.6 132.04 454.1 131.81 433.61 132.18C413.09 132.55 392.58 131.91 372.07 132.01C277.61 132.51 183.15 132.4 88.68 132.52C86.85 132.52 85.02 132.69 83.19 132.67C78.35 132.63 76.29 135.17 76.31 139.83C76.34 148.83 76.41 157.82 76.26 166.82C76.2 170.06 77.65 170.65 80.5 170.62C90.83 170.49 101.16 170.58 111.49 170.53C112.57 170.53 113.66 170.21 114.66 170.05C115.92 155.91 116.85 153.89 124.65 153.15C139.52 151.73 140.9 153.08 145.75 165.93C147.1 165.93 148.6 165.77 150.05 165.96C154.34 166.51 156.78 165.5 157.19 160.44C157.54 156.01 160.92 153.26 165.39 153.11C169.66 152.96 174.01 153.35 178.25 153.98C182.77 154.65 185.63 157.24 186.31 162.13C186.5 163.5 188.18 165.73 189.23 165.76C198.48 166.05 207.75 165.93 216.41 165.93C218.93 162.4 215.23 157 220.61 156.08C224.64 155.39 229.24 155.08 232.92 156.42C234.82 157.11 235.28 161.77 236.88 165.89C238.65 160.61 237.7 155.06 245.51 155.44C252.5 155.78 256.98 156.75 257.29 165.28C259.06 159.4 260.5 155.61 267.78 155.5C275.82 155.37 275.96 160.57 277.89 165.88C279.61 160.34 279.61 155.29 287.97 155.26C295.85 155.24 297.04 159.65 298.66 166.11C301.55 161.42 299.42 154.38 307.06 155.72C310.27 156.28 314.46 155.15 316.59 156.83C318.52 158.35 318.25 162.65 319.17 166.68C320.88 162.44 321.32 157.87 323.68 156.39C326.35 154.72 330.76 155.79 334.42 155.76C340.77 155.71 337 161.95 339.98 164.52L340 164.51ZM289.54 169.27C289.54 169.41 289.54 169.55 289.54 169.69C243.06 169.69 196.58 169.69 150.1 169.71C146.44 169.71 142.76 169.79 139.12 170.1C130.1 170.86 123.35 177.9 123.19 186.94C123.03 195.6 122.68 204.31 123.5 212.9C123.89 217.04 126.23 221.31 128.66 224.85C132.39 230.29 138.62 230.28 144.5 230.27C169.99 230.23 195.47 230.08 220.96 230.04C265.78 229.97 310.59 229.94 355.41 229.91C383.23 229.89 411.06 229.93 438.88 229.86C451.32 229.83 457.56 223.67 457.91 211.25C458.13 203.26 458.37 195.27 458.39 187.28C458.39 185.2 457.91 182.98 457.1 181.06C453.36 172.18 446.02 169.27 436.98 169.27C387.83 169.28 338.68 169.27 289.54 169.27ZM121.8 176.7C120.96 176.48 120.5 176.24 120.04 176.25C97.21 176.29 74.38 176.19 51.56 176.47C40.97 176.6 38.04 179.99 38.04 190.53C38.04 230.02 38.02 269.51 38.04 309.01C38.06 347.83 38.11 386.66 38.19 425.48C38.2 432.55 39.42 439.73 45.85 443.49C50.35 446.12 56.11 447.63 61.36 447.76C79.93 448.23 98.52 447.93 117.11 447.87C194.42 447.62 271.73 447.45 349.04 447.07C406.35 446.79 463.66 446.25 520.98 445.81C522.29 445.8 523.61 445.58 524.92 445.46C523.55 444.49 522.28 444.33 521.02 444.32C478.37 444.06 435.72 443.76 393.07 443.59C358.41 443.45 323.75 443.45 289.09 443.43C240.27 443.4 191.45 443.4 142.63 443.38C114.97 443.38 87.31 443.47 59.65 443.3C48.32 443.23 42.93 437.44 42.87 426.15C42.73 395.33 42.52 364.5 42.46 333.68C42.37 287.52 42.37 241.37 42.34 195.21C42.3333 185.557 47.2567 180.73 57.11 180.73C76.44 180.73 95.77 180.73 115.1 180.73C117.9 180.73 120.93 181.03 121.82 176.71L121.8 176.7ZM287.26 262.16C287.26 262.43 287.26 262.7 287.26 262.97C263.95 262.97 240.65 262.95 217.34 262.98C210.07 262.99 209.15 264.04 209.2 271.53C209.25 278.69 209.41 285.85 209.29 293C208.95 313.3 208.42 333.6 208.12 353.91C208 361.72 209.81 363.24 217.5 363.19C233.64 363.07 249.79 363.02 265.94 362.95C295.41 362.83 324.89 362.8 354.36 362.54C363.58 362.46 365.15 360.67 365.85 351.38C365.96 349.89 365.91 348.38 365.9 346.89C365.65 321.42 365.38 295.96 365.14 270.49C365.07 263.14 364.15 262.17 356.71 262.17C333.56 262.15 310.42 262.17 287.27 262.17L287.26 262.16ZM123.87 271.83C87.82 271.85 58.48 300.97 58.45 336.76C58.42 372.62 87.81 402.09 123.53 402.01C159.59 401.93 188.88 372.81 188.89 337.05C188.89 301.04 159.76 271.81 123.87 271.83ZM450.5 400.32C486.7 400.4 516.02 371.17 516.04 334.98C516.05 299.76 486.94 270.13 452.25 270.04C415.12 269.94 385.85 298.4 385.73 334.73C385.61 370.73 414.75 400.25 450.5 400.32ZM459.72 176.03C460.34 180.42 463.23 180.05 465.83 180.05C487.48 180.01 509.12 179.93 530.77 179.89C537.59 179.88 539.21 181.51 539.49 188.39C539.53 189.39 539.56 190.39 539.57 191.39C539.84 224.35 540.14 257.32 540.37 290.28C540.46 303.5 540.38 316.73 540.38 329.95C540.92 329.95 541.46 329.95 542 329.95C542 326.64 541.98 323.32 542 320.01C542.35 275.89 542.74 231.77 543.01 187.65C543.06 180.18 539.1 176.3 531.64 176.09C526.17 175.93 520.68 176.04 515.2 176.04C501.21 176.04 487.22 176.04 473.24 176.04C468.81 176.04 464.38 176.04 459.71 176.04L459.72 176.03ZM284.27 376.55H256.66V399.99H284.27V376.55ZM328.55 376.32V399.94H355.63V376.32H328.55ZM293.56 399.9H320.94V376.44H293.56V399.9ZM247.13 400.05V376.42H219.68V400.05H247.13ZM520.22 169.64C520.22 157.8 520.89 146.15 519.96 134.62C519.43 128.02 516.7 121.47 514.18 115.21C511.96 109.71 504.35 107.16 496.8 109.59C492 111.14 495.37 115.87 494.86 119.11C494.58 120.88 495.18 122.77 495.02 124.58C494.76 127.55 496.34 128.2 498.85 128.44C503.85 128.92 507.24 126.71 509.08 121.73C518.6 137.27 512.19 153.95 515.28 169.63H520.22V169.64ZM86.3 110.17C81.9 110.17 78.02 109.67 74.35 110.35C71.99 110.78 68.88 112.45 67.97 114.42C65.15 120.55 61.87 126.95 61.26 133.49C60.14 145.38 60.79 157.43 60.74 169.42C60.74 169.68 61.11 169.93 61.37 170.28H66.35C66.35 162.09 66.35 154.15 66.35 146.21C66.36 138.07 66.96 130.06 71.86 122.47C73.17 124.32 73.9 126.54 75.28 127.06C78.05 128.11 81.17 128.4 84.17 128.64C84.82 128.69 86.18 127.23 86.2 126.43C86.39 121.16 86.3 115.89 86.3 110.2V110.17ZM21.97 238.05C25.54 237.64 28.32 237.32 32.04 236.9C29.67 234.82 28.17 233.5 26.24 231.8C28.6 230.78 30.2 230.09 33.2 228.79C31.05 226.22 29.31 224.13 27.76 222.28C28.97 220.77 31.53 218.94 31.56 217.08C31.59 215.43 28.8 213.73 27.87 212.73C29.54 210.15 31.08 207.76 33.05 204.71C27.78 203.71 24.71 203.76 24.32 208.6C23.57 218.04 22.8 227.48 21.95 238.05H21.97ZM455.66 169.08L456.87 168.88V155.66C450.96 156.54 445.39 157.28 439.87 158.22C436.81 158.74 435.11 160.49 436.08 163.86C436.15 164.09 436.51 164.24 436.74 164.42C437.89 163.61 439.03 162.81 440.3 161.92C441.37 163.04 442.24 163.96 443.16 164.92C444.3 164.15 445.42 163.41 446.53 162.67C447.68 164.35 448.6 165.7 449.75 167.37C450.84 165.91 451.74 164.71 452.78 163.31C453.84 165.43 454.76 167.25 455.67 169.08H455.66ZM128.69 157.58C128.27 157.08 127.85 156.59 127.43 156.09C124.65 157.72 121.22 158.83 119.31 161.17C118.08 162.68 119.08 166.01 119.08 168.52C119.51 168.52 119.94 168.51 120.37 168.5C120.72 166.95 121.07 165.39 121.75 162.39C122.61 165.82 123.08 167.7 123.91 171.04C124.6 167.77 124.97 166.01 125.6 163C126.63 166 127.24 167.76 127.84 169.53C128.12 169.43 128.41 169.34 128.69 169.24V157.58ZM170.21 157.14C162.1 156.87 159.81 158.79 160.94 164.06C164.12 164.34 167.14 164.61 170.21 164.89V157.15V157.14ZM461.85 168.85C465.38 164.07 464.89 158.79 461.85 156.62V168.85ZM23.15 249.1C22.93 249.57 22.7 250.05 22.48 250.52C23.65 251.26 24.88 252.69 25.97 252.6C28.09 252.41 30.13 251.36 32.21 250.67C32.05 250.15 31.88 249.62 31.72 249.1H23.15ZM31.07 244.66C31.16 243.85 31.24 243.04 31.33 242.23C28.46 241.93 25.59 241.63 22.71 241.33L22.45 243.84C25.32 244.11 28.2 244.39 31.07 244.66ZM470.54 157.3C470.25 157.32 469.95 157.33 469.66 157.35V169.58C469.95 169.54 470.25 169.51 470.54 169.47V157.3Z"
                                    fill="black" />
                                <path
                                    d="M290.3 177.91C338.94 177.91 387.57 177.91 436.21 177.91C445.76 177.91 447.44 179.22 447.84 188.64C448.22 197.62 448.16 206.62 448.01 215.61C447.9 221.88 445.28 224.2 438.96 224.27C427.3 224.39 415.65 224.52 403.99 224.54C346.36 224.66 288.73 224.74 231.09 224.84C202.44 224.89 173.79 224.97 145.14 225.01C134.75 225.03 132.87 223.12 132.86 212.85C132.86 204.69 132.73 196.53 132.86 188.37C132.99 180.06 134.73 178.41 142.89 178.37C165.71 178.26 188.53 178.14 211.34 178.1C237.66 178.05 263.98 178.09 290.29 178.09V177.91H290.3ZM284.85 196.74C284.85 193.57 285.33 190.51 284.66 187.72C284.28 186.12 282.04 184.97 280.63 183.62C279.4 184.97 277.42 186.16 277.11 187.69C276.54 190.54 276.95 193.58 276.95 197.07H169.84C169.79 196.56 169.87 195.87 169.64 195.3C169.19 194.21 168.57 193.2 168.02 192.15C167.33 193.09 166.76 194.16 165.91 194.93C164.75 195.97 163.42 197.48 162.08 197.57C156.93 197.89 151.72 197.38 146.61 197.92C144.93 198.1 143.49 200.52 141.94 201.92C143.56 203.23 145.02 205.32 146.83 205.68C149.87 206.3 153.14 205.61 156.29 205.85C159.72 206.11 163.11 206.81 167.1 207.41C168.84 206.98 171.39 205.83 173.95 205.79C202.6 205.41 231.25 205.2 259.9 204.97C265.32 204.93 270.75 204.97 276.24 204.97C276.24 208.73 276.28 211.72 276.23 214.71C276.18 217.76 276.56 220.75 280.38 220.83C284.41 220.92 284.44 217.55 284.59 214.74C284.75 211.64 284.63 208.52 284.63 204.29C289.68 205.12 293.81 205.79 298.99 206.64C302.09 203.59 317.12 203.57 322.46 207.84C326.36 203.48 345.3 203.36 348.91 206.73C352.33 205.92 354.93 204.82 357.55 204.76C371.87 204.42 386.2 204.23 400.52 204.26C403.28 204.26 406.05 205.48 408.37 206.03C411.56 205.34 414.7 204.27 417.89 204.06C423.03 203.72 428.24 204.24 433.37 203.78C434.97 203.64 436.4 201.52 437.9 200.3C436.37 198.91 435 197.25 433.26 196.23C432.26 195.65 430.66 196.13 429.32 196.13C423.58 196.13 417.83 196.13 412.19 196.13C411.96 193.66 411.8 191.98 411.64 190.3C411.07 190.17 410.49 190.04 409.92 189.91C409.06 191.88 408.2 193.85 407.2 196.14H353.88C352.93 194.07 352.24 192.58 351.56 191.08C350.42 192.69 349.28 194.3 347.87 196.31H326.4C325.53 194.26 324.89 192.74 324.25 191.22C323.43 192.4 322.7 193.66 321.77 194.75C321.1 195.52 320.18 196.6 319.35 196.62C313.27 196.78 307.19 196.71 301.35 196.71C300.86 194.35 300.51 192.73 300.17 191.11C299.67 191.05 299.17 191 298.68 190.94C297.85 192.84 297.02 194.75 296.16 196.73H284.86L284.85 196.74Z"
                                    fill="black" />
                            </g>
                            <g id="casette-tape">
                                <path id="casette-body"
                                    d="M287.76 265.8C310.09 265.8 332.42 265.79 354.74 265.8C361.72 265.8 362.17 266.3 362.26 273.14C362.56 295.79 362.9 318.44 363.21 341.09C363.25 343.76 363.32 346.42 363.23 349.09C362.94 358.49 361.35 360.04 352.02 360.05C308.03 360.05 264.04 360.05 220.06 360.05C214.11 360.05 212.37 358.8 212.39 352.81C212.46 333.32 212.93 313.84 213.15 294.36C213.23 287.54 213 280.72 212.95 273.91C212.89 266.39 213.43 265.83 220.77 265.83C243.1 265.83 265.43 265.83 287.75 265.81L287.76 265.8ZM352.18 332.67C352.4 331.97 352.67 331.51 352.67 331.05C352.71 314.72 352.79 298.4 352.69 282.07C352.66 277.23 349.95 275.07 344.38 275.06C306.39 275 268.41 274.98 230.42 274.98C224.39 274.98 222.16 277.38 222.16 283.61C222.16 292.61 222.27 301.6 222.3 310.6C222.32 317.87 222.3 325.14 222.3 332.67H352.18ZM310.45 357.88C311.1 357.9 311.75 357.92 312.4 357.94C312.58 356.63 312.92 355.32 312.9 354.01C312.79 344.73 314.36 345.72 304.88 345.58C296.73 345.46 288.58 345.44 280.43 345.4C275.68 345.38 270.93 345.4 266.31 345.4V357.36C266.94 357.42 267.56 357.49 268.19 357.55C268.53 354.48 268.87 351.42 269.16 348.8H309.79C310.04 352.23 310.24 355.06 310.45 357.88ZM274.2 338.7C274.2 339.13 274.2 339.57 274.2 340C275.45 340.51 276.68 341.43 277.94 341.46C285.58 341.67 293.23 341.76 300.87 341.67C302.07 341.66 303.26 340.48 304.45 339.84C303.23 339.07 302.04 337.67 300.79 337.62C293.16 337.3 285.51 337.21 277.87 337.23C276.64 337.23 275.41 338.18 274.18 338.7H274.2ZM244.04 349.08C239.88 349.08 235.71 348.95 231.56 349.18C230.61 349.23 229.73 350.48 228.81 351.17C229.68 351.75 230.53 352.82 231.41 352.85C239.39 353.1 247.38 353.25 255.36 353.18C256.43 353.18 257.49 351.78 258.55 351.03C257.37 350.38 256.23 349.26 255.01 349.18C251.37 348.93 247.69 349.09 244.03 349.08H244.04ZM332.67 353.93C332.67 354.06 332.67 354.18 332.67 354.31C336.49 354.31 340.32 354.46 344.12 354.22C345.3 354.14 346.4 352.98 347.54 352.31C346.44 351.57 345.35 350.23 344.22 350.2C336.42 350.01 328.61 350.02 320.8 350.16C319.8 350.18 318.81 351.33 317.82 351.95C318.78 352.61 319.71 353.79 320.71 353.84C324.68 354.06 328.68 353.93 332.66 353.93H332.67ZM360 272.18C358.05 270.97 356.79 269.58 355.84 269.77C354.85 269.97 353.72 271.61 353.53 272.77C353.43 273.38 355.23 274.99 356.08 274.92C357.18 274.84 358.18 273.54 360.01 272.18H360ZM355.28 359.12C356.5 357.15 357.72 356.04 357.7 354.94C357.69 354.06 355.94 352.36 355.37 352.52C354.21 352.84 352.69 354.07 352.54 355.1C352.4 356.03 353.89 357.2 355.28 359.12ZM223.36 270.55C221.49 269.47 220.33 268.3 219.21 268.34C218.42 268.37 216.88 270.38 217.1 270.9C217.56 272 218.88 273.19 220.01 273.38C220.76 273.51 221.78 271.95 223.36 270.55Z"
                                    fill="black" />
                                <path id="casette-outer"
                                    d="M287.32 296.03C297.98 296.03 308.64 295.91 319.3 296.08C324.98 296.17 328.97 299.42 330.4 304.47C331.76 309.25 330.34 314.93 326.14 317.3C323.27 318.92 319.58 319.71 316.24 319.75C297.59 319.96 278.93 319.83 260.28 319.82C259.95 319.82 259.61 319.82 259.28 319.82C249.55 319.71 244.04 315.35 244.06 307.79C244.08 300.33 249.69 295.99 259.33 295.99C268.66 295.99 277.98 295.99 287.31 295.99C287.31 296.01 287.31 296.03 287.31 296.05L287.32 296.03ZM324.94 301.86L325.11 302.03C321.01 298.27 316.49 298.15 313.01 301.7C309.25 305.53 309.2 312.93 312.91 316.47C315.47 318.92 320.97 317.93 324.9 314.3C328.79 310.7 328.81 306.05 324.93 301.86H324.94ZM259.95 315.56C264.16 312.36 266.75 306.63 264.52 303.2C263.2 301.16 260.02 299.75 257.44 299.24C252.81 298.33 249.36 300.78 247.74 305.12C246.03 309.72 248.1 313.11 252.05 315.56C254.68 315.56 257.32 315.56 259.95 315.56ZM275.41 312.15C279.39 312.15 282.75 312.57 285.91 311.97C287.46 311.68 289.66 309.51 289.7 308.13C289.74 306.77 287.61 304.41 286.12 304.13C282.84 303.52 279.37 303.94 275.87 303.94C275.7 306.92 275.58 309.03 275.41 312.15ZM300.42 303.04C297.3 304.16 294.88 304.42 293.49 305.75C292.66 306.55 292.78 309.83 293.67 310.58C295.11 311.79 297.53 311.85 299.97 312.5C300.13 309.17 300.24 306.92 300.43 303.03L300.42 303.04Z"
                                    fill="black" />
                                <path id="casette-circle"
                                    d="M259.95 315.56C257.32 315.56 254.68 315.56 252.05 315.56C251.3 313.67 250.95 311.46 249.74 309.95C246.34 305.71 250.1 302.77 252.31 301.47C254.38 300.25 258.89 300.78 260.82 302.36C262.97 304.13 265.18 307.66 262.29 311.25C261.28 312.5 260.72 314.11 259.95 315.56Z"
                                    fill="black" />
                            </g>
                            <g id="left-speaker">
                                <path id="left-outer-ring"
                                    d="M185.427 341.129C183.827 375.069 155.097 401.359 120.747 399.479C84.1367 397.479 59.6667 366.929 62.1767 333.499C64.8167 298.389 94.7267 273.149 128.827 276.259C162.617 279.349 188.407 308.899 185.427 341.129ZM123.767 280.609C91.9567 280.659 66.4667 306.309 66.5267 338.199C66.5767 369.369 92.8267 395.329 124.097 395.119C155.457 394.909 181.267 368.879 181.077 337.639C180.887 306.069 155.247 280.549 123.767 280.609Z"
                                    fill="black" />
                                <path id="left-middle-ring"
                                    d="M172.31 336.87C172.35 363.95 151.12 384.97 123.83 385.17C95.56 385.37 75.25 360.99 75.02 337.68C74.75 310.84 97.03 288.3 123.52 288.14C150.7 287.98 172.28 309.53 172.32 336.87H172.31ZM158.72 311.4C159.26 310.63 159.79 309.87 160.33 309.1C157.02 305.41 154.26 300.95 150.31 298.17C125.52 280.72 91.07 291.6 80.06 320.01C76.32 329.66 75.86 339.48 78.74 349.34C81.12 357.48 84.26 365.27 94.49 369.08C93.81 366.68 93.32 364.95 92.83 363.22C93.11 362.82 93.38 362.43 93.66 362.03C95.01 363.01 96.48 363.87 97.7 364.99C112.17 378.27 133.89 378.59 149.21 365.7C163.74 353.48 166.75 332.32 156.09 316.05C153.82 312.58 150.84 309.56 148.3 306.47C151.72 308.08 155.23 309.74 158.73 311.39L158.72 311.4Z"
                                    fill="black" />

                                <path id="left-inner"
                                    d="M130.25 300.84C126.69 301.06 123.32 301.28 119.94 301.49C119.93 301.79 119.92 302.09 119.91 302.38C123.63 302.83 127.35 303.27 131.06 303.72C131.05 303.98 131.03 304.23 131.02 304.49C126.98 304.7 122.95 304.91 118.91 305.12C118.89 305.54 118.88 305.96 118.86 306.38C122.65 306.59 126.44 306.8 130.22 307.02C130.22 307.3 130.22 307.59 130.23 307.87C127.25 308.01 124.27 308.15 121.28 308.29C121.23 308.59 121.18 308.9 121.13 309.2C123.44 309.58 125.75 309.95 128.06 310.33C128.06 310.52 128.06 310.7 128.05 310.89C125.51 311.27 122.97 311.65 120.44 312.03C120.42 312.39 120.39 312.75 120.37 313.11C123.63 313.47 126.88 313.84 130.14 314.2L130.12 314.82C127.09 314.99 124.06 315.16 121.04 315.34C134.71 317.57 144.15 323.69 143.21 339.23C142.73 347.19 137.13 354.02 129.51 355.88C117.54 358.79 109.24 353.75 103.43 343.26C104.34 345.61 105.25 347.96 106.16 350.3C105.91 350.45 105.67 350.6 105.42 350.75C103.91 348.45 102.39 346.15 100.88 343.85C100.62 343.96 100.36 344.08 100.1 344.19C101.5 347.29 102.9 350.38 104.3 353.48C103.92 353.68 103.54 353.87 103.15 354.07L97.51 345.66C97.3 345.75 97.08 345.84 96.87 345.92C98.2 349.01 99.53 352.09 100.86 355.18C100.64 355.32 100.43 355.46 100.21 355.6C98.3 352.75 96.38 349.9 94.47 347.05C94.24 347.14 94.01 347.24 93.78 347.33C95.47 351 97.16 354.68 98.85 358.35C98.63 358.48 98.41 358.62 98.18 358.75C95.97 355.59 93.76 352.44 91.55 349.28C91.37 349.34 91.19 349.41 91.01 349.47C92.34 352.52 93.67 355.56 95.13 358.92C88.07 355.25 85.48 349.41 84.9 342.32C84.01 331.51 85.75 321.36 92.72 312.68C98.74 305.18 106.44 300.15 115.97 298.25C117.74 297.9 119.68 297.66 121.4 298.03C124.31 298.65 127.11 299.8 130.25 300.83V300.84Z"
                                    fill="black" />
                            </g>
                            <g id="right-speaker">
                                <path id="right-outer-ring"
                                    d="M512.47 338.43C510.87 372.37 482.14 398.66 447.79 396.78C411.18 394.78 386.71 364.23 389.22 330.8C391.86 295.69 421.77 270.45 455.87 273.56C489.66 276.65 515.45 306.2 512.47 338.43ZM450.81 277.91C419 277.96 393.51 303.61 393.57 335.5C393.62 366.67 419.87 392.63 451.14 392.42C482.5 392.21 508.31 366.18 508.12 334.94C507.93 303.37 482.29 277.85 450.81 277.91Z"
                                    fill="black" />
                                <path id="right-middle-ring"
                                    d="M409.82 358.91C400.99 347.89 400.78 335.29 404.13 322.58C409.92 300.61 429.86 286.01 452.19 286.61C475.09 287.22 493.35 302.2 498.57 324.66C505.4 354.06 482.85 382.7 452.53 383.18C434.68 383.46 420.68 376.38 410.74 361.49C410.22 360.71 410.04 359.7 409.7 358.8C413.17 361.66 416.63 364.51 420.09 367.36C420.49 367.12 420.9 366.87 421.3 366.63C420.87 363.91 420.44 361.2 420.02 358.48C421.8 360.19 423.53 361.95 425.37 363.6C439.53 376.24 461.18 376.59 475.73 364.43C490.74 351.9 494.2 330.94 483.44 314.59C480.33 309.86 475.71 306.11 471.78 301.91C474.11 303.39 476.48 304.81 478.77 306.36C481.2 308 483.5 309.98 486.83 307.85C484.99 304.92 483.7 301.39 481.23 299.17C466.99 286.4 444.54 284.36 428.2 293.96C410.46 304.38 401.02 324.35 405.09 343.48C406.21 348.72 408.22 353.77 409.83 358.91H409.82Z"
                                    fill="black" />
                                <path id="right-inner"
                                    d="M416.56 352.04C415.42 350.02 413.81 348.14 413.22 345.97C406.96 323.13 420.74 300.68 444 296.49C448.8 295.62 454.03 297.13 459.06 297.54C455.97 297.21 452.89 296.87 449.8 296.53C449.76 296.79 449.71 297.05 449.67 297.31C452.88 297.83 456.08 298.35 459.29 298.86C459.27 299.18 459.26 299.51 459.24 299.83H446.87C446.87 300.04 446.87 300.26 446.88 300.47L457.83 301.83C457.83 302.13 457.83 302.42 457.83 302.72C453.95 302.91 450.08 303.11 446.2 303.3C446.2 303.66 446.18 304.02 446.17 304.38C450.4 304.73 454.64 305.09 458.87 305.44C458.85 305.83 458.84 306.22 458.82 306.62H448.88C448.88 306.87 448.86 307.13 448.85 307.38C451.32 307.82 453.79 308.27 456.27 308.71C456.26 308.88 456.25 309.05 456.24 309.23C453.34 309.54 450.44 309.86 447.54 310.17L447.5 311.45C450.67 311.69 453.85 311.93 457.02 312.16C457.02 312.44 457.01 312.73 457 313.01H447.95C447.71 313.42 447.48 313.83 447.24 314.24C461.64 315.7 471.45 321.72 470.35 337.45C469.76 346.01 463.91 352.42 455.62 354.24C443.9 356.81 436.21 351.32 430.7 341.33L433.17 348.41C432.94 348.52 432.72 348.63 432.49 348.75C430.95 346.42 429.41 344.09 427.86 341.75C427.64 341.86 427.42 341.97 427.2 342.08C428.54 345.15 429.87 348.23 431.21 351.3C430.84 351.53 430.48 351.76 430.11 351.99C428.33 349.29 426.55 346.6 424.77 343.9C424.55 343.98 424.33 344.06 424.11 344.15C425.57 347.53 427.03 350.91 428.49 354.29C428.31 354.4 428.13 354.5 427.95 354.61C425.8 351.42 423.65 348.23 421.5 345.03C421.28 345.12 421.06 345.21 420.84 345.3C422.61 349.13 424.38 352.95 426.15 356.78C425.94 356.92 425.73 357.06 425.53 357.2C423.23 353.9 420.92 350.59 418.62 347.29C418.44 347.35 418.27 347.42 418.09 347.48C419.4 350.49 420.7 353.51 422.01 356.52C421.76 356.69 421.52 356.86 421.27 357.02C419.91 355.17 418.56 353.31 417.19 351.47C417.11 351.36 416.89 351.35 416.74 351.29C416.67 351.53 416.6 351.78 416.54 352.02L416.56 352.04Z"
                                    fill="black" />
                            </g>
                        </svg>