<svg width="161" height="258" viewBox="0 0 161 258" fill="none" xmlns="http://www.w3.org/2000/svg">
<path d="M0.0899963 60.09C2.29 55.15 3.9 50.82 6.16 46.86C6.92 45.54 9.34999 44.47 11.02 44.47C56.64 44.34 102.25 44.37 147.87 44.37C153.77 44.37 161.18 52.42 160.53 58.31C160.44 59.1 159.26 60.07 158.38 60.38C157.34 60.75 156.08 60.52 154.91 60.52C105.29 60.53 55.68 60.54 6.06 60.53C4.32 60.53 2.57999 60.27 0.0799866 60.08L0.0899963 60.09Z" fill="black"/>
<path d="M10.98 37.27C15.31 32.58 19.53 27.77 24.06 23.29C25.03 22.33 27.16 22.26 28.76 22.25C63.58 22.2 98.39 22.16 133.21 22.33C135.43 22.34 138.17 23.42 139.74 24.96C143.72 28.85 147.17 33.28 151.64 38.43H12.07C11.71 38.05 11.34 37.66 10.98 37.28V37.27Z" fill="black"/>
<path d="M33.03 169.33C39.13 160.91 38.79 160.31 28.23 158.52C25.23 158.01 22.31 156.99 19.36 156.2C19.41 155.58 19.46 154.95 19.51 154.33C24.3 154.05 29.09 153.52 33.87 153.53C66.2 153.59 98.52 153.79 130.85 153.89C135.18 153.9 139.51 153.5 143.83 153.53C145.85 153.55 147.87 154.14 149.88 154.47C150 154.96 150.11 155.44 150.23 155.93C148.9 156.85 147.7 158.18 146.23 158.64C134.34 162.32 122.4 165.86 110.46 169.37C109.21 169.74 107.82 169.68 106.49 169.68C83.33 169.73 60.16 169.76 37 169.77C35.75 169.77 34.49 169.51 33.02 169.34L33.03 169.33Z" fill="black"/>
<path d="M22.63 185.98C30.41 184.36 38.18 182.75 45.96 181.13C45.96 180.38 45.96 179.64 45.96 178.89C42.31 177.91 38.66 176.93 35.02 175.95C35.02 175.73 35.01 175.51 35 175.3C37.65 175.3 40.3 175.3 42.95 175.3C65.1 175.3 87.24 175.32 109.39 175.27C116.22 175.25 120.95 179.3 127.17 183.62C122.48 184.83 119.05 185.8 115.58 186.57C112.82 187.18 110.98 188.12 113.38 191.62C111.2 191.73 109.6 191.88 108 191.88C88.68 191.91 69.36 192.32 50.06 191.74C40.91 191.46 31.83 189.27 22.71 187.95C22.69 187.29 22.67 186.64 22.65 185.98H22.63Z" fill="black"/>
<path d="M140.14 132.07C124.12 136.79 107.52 134.85 91.67 139.38C102.83 145.84 115.47 143.92 127.16 147.29H33.29C35.49 143.05 34.76 141.58 29.46 140.76C25.01 140.07 20.52 139.57 16.06 138.43C21.44 135.22 25.8 131.65 32.92 131.8C64.06 132.47 95.22 132.08 126.37 132.08C130.96 132.08 135.56 132.08 140.15 132.08L140.14 132.07Z" fill="black"/>
<path d="M135.65 202.47C130 203.87 124.39 205.4 118.71 206.63C107.69 209.02 96.72 212.08 85.56 213.31C75.21 214.45 64.62 213.77 54.16 213.42C51.72 213.34 49.21 211.53 46.98 210.13C41.21 206.49 41.57 204.6 47.31 200.78C51.58 197.94 55.89 197.13 60.87 197.17C82.52 197.36 104.18 197.16 125.83 197.37C129.08 197.4 132.32 198.85 135.57 199.65C135.6 200.59 135.63 201.54 135.66 202.48L135.65 202.47Z" fill="black"/>
<path d="M32.44 16.47C56.46 -3.69001 99.79 -6.55001 129.69 16.47H32.44Z" fill="black"/>
<path d="M47.13 235.94C51.21 229.45 60.22 228.43 59.13 219.17C67.2 219.17 74.92 218.97 82.62 219.27C85.57 219.38 86.93 223.61 84.44 225.82C79.06 230.61 74.57 237.05 65.7 236.06C59.91 235.41 53.98 235.94 47.14 235.94H47.13Z" fill="black"/>
<path d="M57.56 241C61.8 241 65.27 240.9 68.72 241.06C69.73 241.11 71.24 241.6 71.62 242.35C73.41 245.91 75.02 249.57 76.4 253.31C76.79 254.36 76.6 256.43 75.92 256.88C74.93 257.53 72.83 257.71 71.96 257.07C68.8 254.75 65.73 252.21 63.06 249.34C61.07 247.19 59.76 244.42 57.56 241.01V241Z" fill="black"/>
</svg>
