<svg width="300" height="300" viewBox="0 0 300 300" fill="none" xmlns="http://www.w3.org/2000/svg">
<g clip-path="url(#clip0_13_373)">
<path d="M147.43 193.95C162.22 197.29 177.62 194.78 192.33 198.3C192.4 198.83 192.46 199.35 192.53 199.88C185.75 201.98 178.97 204.08 172.2 206.17C172.21 206.79 172.22 207.42 172.23 208.04C174.64 208.56 177.02 209.35 179.45 209.55C192.89 210.64 206.36 211.47 219.79 212.68C223.43 213.01 226.98 214.33 230.57 215.2C230.62 215.86 230.67 216.51 230.71 217.17C228.56 217.98 226.47 219.11 224.24 219.56C212.34 221.94 200.39 224.1 188.48 226.44C185.66 226.99 182.92 227.96 180.1 229.39C188.78 235.08 200.37 234.39 208.75 243.74C203.64 245.16 199.79 246.45 195.86 247.28C189.04 248.73 182.1 249.65 175.33 251.27C170.25 252.49 169.94 254.14 173.31 258.05C178.21 263.73 177.87 265.38 171.38 269.49C169.09 270.94 167.09 272.86 164.96 274.56C167.1 275.94 169.25 277.31 171.39 278.71C172.19 279.23 172.95 279.81 173.86 280.45C167.53 283.43 151.57 280.6 144.6 274.78C150.72 272.38 156.3 270.19 161.88 268C161.91 267.29 161.94 266.58 161.98 265.87L135.87 257.61C135.89 256.89 135.92 256.17 135.94 255.45C138.6 254.39 141.4 253.58 143.86 252.17C145.41 251.28 147.19 249.63 147.46 248.08C147.64 247.06 145.54 244.88 144.1 244.45C138.55 242.81 132.85 241.69 127.21 240.34C122.37 239.18 117.55 237.96 112.73 236.76C112.78 235.86 112.83 234.95 112.89 234.05C123.34 232.54 133.79 231.03 144.98 229.41C143.77 227.29 143.1 226.12 141.54 223.37H171.42C171.42 222.45 171.4 221.52 171.4 220.6C166.64 220.6 161.87 220.61 157.11 220.6C134.78 220.52 112.46 220.54 90.13 220.28C84.99 220.22 79.85 219.16 74.74 217.88C86.28 213.74 99.04 215.65 110.06 210.05L110.12 208.01C104.86 207.39 99.6 206.81 94.35 206.12C89.18 205.44 84.02 204.65 78.85 203.91C78.82 203.08 78.8 202.24 78.77 201.41L109.69 197.48C109.76 197.13 109.82 196.78 109.89 196.43C107.28 195.67 104.67 194.9 101.19 193.88C103.69 192.85 105.33 192.17 107.21 191.39C106.64 190.47 106.17 189.71 105.53 188.67C110.1 187.63 114.47 186.64 118.84 185.64C118.83 185 118.81 184.35 118.8 183.71C104.16 181.9 89.53 180.09 74.89 178.28C74.83 177.43 74.77 176.58 74.71 175.74C80.38 174.4 86.05 173.06 91.71 171.72C91.73 171.21 91.74 170.69 91.76 170.18C79.14 164.62 64.69 165.38 51.98 160.15C51.94 159.68 51.9 159.21 51.86 158.74C54.94 158.05 58.02 157.39 61.09 156.66C63.83 156.01 66.64 155.51 69.26 154.52C70.48 154.06 72.07 152.63 72.13 151.56C72.19 150.54 70.68 149.04 69.51 148.41C66.73 146.93 63.71 145.91 60.85 144.57C58.79 143.6 56.83 142.4 53.37 140.51C58.14 138.23 61.66 136.55 65.18 134.86C65.2 134.41 65.21 133.96 65.23 133.51C59.27 131.58 53.31 129.65 46 127.27C49.78 125.37 52.28 124.12 55.82 122.34C52.88 120.87 50.92 119.9 48.02 118.45C50.62 117.91 52.33 117.61 54.01 117.2C68.22 113.71 82.61 112.84 97.24 112.94C144.57 113.27 191.9 113.06 239.23 113.05C241.85 113.05 244.47 113.05 247.1 113.05C247.13 113.53 247.16 114 247.19 114.48C240.08 115.26 232.96 116.04 225.85 116.81C225.81 117.17 225.78 117.52 225.74 117.88C235.31 119.18 244.87 120.47 254.44 121.77C254.49 122.57 254.54 123.38 254.58 124.18C252.24 124.92 249.92 126.16 247.54 126.32C238.9 126.89 230.25 127.08 221.6 127.44C219.89 127.51 218.19 127.67 216.47 129C225.42 130.38 234.37 131.77 243.31 133.15C243.29 133.93 243.27 134.72 243.26 135.5C236.45 136.1 229.64 137.05 222.82 137.25C195.34 138.08 167.86 138.67 140.37 139.38C138.64 139.42 136.92 139.68 135.19 139.84L135.17 141.15C137.01 141.23 138.85 141.38 140.69 141.38C167.85 141.47 195.02 141.36 222.18 141.76C227.89 141.84 233.57 143.78 239.16 145.86C228.36 151.59 216.31 148.77 205.36 151.94C205.3 152.47 205.25 153 205.19 153.54C208.71 154.19 212.24 154.77 215.74 155.52C219.95 156.41 224.21 157.2 228.28 158.54C229.88 159.07 231.03 160.98 232.39 162.26C230.76 163.23 229.21 164.77 227.47 165.05C221.4 166.04 215.28 167.02 209.15 167.23C190.67 167.87 172.17 168.12 153.68 168.6C149.04 168.72 144.42 169.12 139.75 169.95C170.76 174.12 202.51 171.89 233 180.88C218.51 185.49 203.17 181.37 188.13 185.39C189.27 187.39 190.04 188.75 191.21 190.79C176.32 192.4 161.65 189.88 147.45 193.93L147.43 193.95ZM129.06 176.23C129.41 176.95 129.74 178.27 130.12 178.29C134.21 178.44 138.31 178.38 142.41 178.38C142.41 178.22 142.43 178.05 142.44 177.89C137.94 177.37 133.44 176.85 128.93 176.33C126.15 175.47 121.98 175.41 120.91 173.56C119.08 170.41 116.76 170.38 114.05 169.78C110.73 169.04 107.52 167.81 104.24 166.89C100.84 165.93 97.4 165.1 93.89 164.18C95.61 167.93 96.98 170.93 98.46 174.15C95.44 175 92.92 175.71 90.4 176.42C103.44 177.77 116.33 180.22 129.07 176.22L129.06 176.23ZM216.3 117.89C216.3 117.35 216.32 116.81 216.32 116.27C213.58 116.03 210.84 115.59 208.1 115.57C169.12 115.2 130.14 114.68 91.16 114.7C82.56 114.7 73.97 116.64 64.56 117.79C67.58 124.21 61.46 123.29 59.66 126.14C66.59 126.69 73.01 127.2 79.42 127.71C75.9 131.75 72.86 135.23 69.43 139.17C78.64 144.24 88.89 142.37 98.28 145.1C96.28 145.7 94.28 146.29 92.29 146.89C92.36 147.45 92.43 148.01 92.49 148.58H121.58C121.58 149.09 121.56 149.6 121.56 150.11C108.01 151.28 94.46 152.44 80.91 153.61C80.96 154.29 81 154.96 81.05 155.64H193.66C193.68 155.42 193.69 155.2 193.71 154.99C182.91 153.93 172.12 152.87 161.32 151.81L161.4 150.94C182.73 149.83 204.06 148.71 225.39 147.6C225.37 147.01 225.34 146.42 225.32 145.84C223.72 145.75 222.13 145.59 220.53 145.58C205.7 145.43 190.87 145.55 176.05 145.09C159.59 144.58 143.14 143.6 126.69 142.66C124.6 142.54 122.57 141.39 120.52 140.71C120.52 140.19 120.53 139.67 120.54 139.15C122.47 138.51 124.37 137.4 126.33 137.29C144.44 136.25 162.55 135.27 180.68 134.51C192.35 134.02 204.03 133.92 215.71 133.65C213.63 132.31 211.54 131.76 209.42 131.68C197.94 131.23 186.45 131.11 174.98 130.46C153.96 129.26 132.4 134.06 112.06 124.88C110.38 124.12 108.38 124.1 106.52 123.74C106.56 123.28 106.59 122.82 106.63 122.36C143.02 117.65 179.76 119.33 216.32 117.93L216.3 117.89ZM220.91 163.02C221.08 162.4 221.25 161.78 221.42 161.15C219.39 160.34 217.37 158.83 215.34 158.82C197.21 158.7 179.09 158.76 160.96 158.95C156.05 159 151.15 159.66 146.25 160.05C150.96 161.18 155.55 161.73 160.12 162.41C164.16 163.01 168.15 164.04 172.2 164.33C176.5 164.64 180.84 164.36 185.16 164.23C197.08 163.86 208.99 163.43 220.91 163.03V163.02ZM140.62 166.19C137.29 165.16 137.64 160.15 133.15 160.5C122.57 161.33 111.92 161.2 101.29 161.53C99.88 161.57 98.48 162.06 97.08 162.35C97.15 162.73 97.22 163.1 97.29 163.48H122.14C122.18 163.74 122.21 164 122.25 164.27C120.14 164.81 118.03 165.36 114.8 166.19H140.61H140.62ZM130.97 123.02V124.18H198.5V123.02H130.97ZM116.39 158.94C116.39 158.72 116.37 158.51 116.36 158.29C100 158.87 83.64 159.46 67.28 160.04C67.26 160.51 67.24 160.97 67.22 161.44C73.73 162.32 80.24 163.21 86.75 164.05C87.32 164.12 88.36 163.98 88.47 163.69C90.07 159.24 94.01 160.36 97.21 160.09C103.59 159.56 109.99 159.3 116.38 158.94H116.39Z" fill="black"/>
<path d="M244.94 109.15H48.97C44.15 71.6104 90.2599 24.1404 134.9 19.5704C196 13.3004 241.67 59.7304 244.94 109.15ZM146.31 106.45C163.28 106.45 180.25 106.38 197.22 106.5C201.42 106.53 202.77 105.33 201.94 100.91C199.78 89.4304 194.52 79.7704 186.34 71.5504C168.77 53.8804 143.73 50.1504 122.04 60.7004C105.88 68.5604 95.9799 81.8104 91.7299 99.3204C90.1699 105.74 90.4499 106.4 96.8899 106.42C113.36 106.48 129.83 106.44 146.3 106.44L146.31 106.45Z" fill="black"/>
</g>
<defs>
<clipPath id="clip0_13_373">
<rect width="209" height="263" fill="white" transform="translate(46 19)"/>
</clipPath>
</defs>
</svg>
