<svg id="surfboard" width="300" height="300" viewBox="0 0 300 300" fill="none" xmlns="http://www.w3.org/2000/svg">
<g clip-path="url(#clip0_13_360)">
<path d="M188.666 158.36C186.484 181.756 185.098 205.253 181.813 228.495C180.042 240.981 175.396 253.147 171.302 265.198C169.813 269.561 166.618 273.617 163.41 277.082C155.312 285.834 143.646 286.322 136.087 277.171C130.723 270.678 126.629 262.721 123.626 254.79C117.479 238.53 115.066 221.295 114.027 204.047C112.756 182.975 111.589 161.813 112.14 140.727C113.141 102.266 121.599 65.3314 138.872 30.6814C140.643 27.1265 142.851 23.7385 145.186 20.5045C148.472 15.9615 150.615 15.7305 153.451 20.4275C158.135 28.2045 162.794 36.1226 166.284 44.4771C181.492 80.8339 188.165 118.859 187.421 158.219C187.831 158.258 188.242 158.296 188.653 158.335L188.666 158.36ZM182.66 159.374C184.97 157.449 185.47 135.016 182.133 128.189C178.887 132.283 175.909 136.03 172.38 140.471C172.829 138.032 173.509 136.428 173.317 134.939C172.829 130.922 172.342 126.816 171.045 123.03C170.596 121.708 167.285 120.053 166.117 120.54C162.113 122.209 156.967 118.705 153.759 123.364C153.605 123.595 152.861 123.415 152.386 123.415C145.52 123.441 142.158 127.855 145.392 133.772C148.151 138.815 152.334 143.076 155.851 147.632C157.737 146.31 158.636 145.681 159.547 145.052C160.856 146.669 161.895 147.953 163.333 149.736C163.666 146.746 163.923 144.5 164.18 142.254C164.693 142.229 165.206 142.216 165.72 142.19C166.336 144.577 166.939 146.964 167.555 149.377C170.147 148.004 172.406 146.81 173.997 145.976C175.191 150.814 176.127 154.575 177.218 159.015C174.626 158.54 172.406 158.129 170.198 157.719C170.609 159.888 171.033 162.082 171.443 164.264L170.096 164.636C168.966 162.968 167.85 161.312 166.541 159.361C165.668 161.8 164.988 163.699 164.308 165.598C163.846 165.509 163.397 165.419 162.935 165.329C162.755 163.481 162.563 161.633 162.434 160.362H156.018C156.929 155.794 152.424 155.64 150.384 153.445C145.661 148.363 140.99 143.243 136.19 138.019C136.216 138.007 135.651 138.161 135.459 138.52C131.917 145.167 129.825 152.354 129.979 159.811C130.146 167.883 134.034 170.026 141.734 167.138C143.916 166.33 146.033 165.38 148.946 164.187C145.456 166.779 142.453 168.589 139.989 170.963C137.05 173.799 137.191 178.714 140.284 180.703C145.725 184.207 151.244 187.71 157.096 190.418C164.962 194.05 168.646 191.727 169.659 183.052C170.019 180.036 169.711 176.943 169.711 173.876C170.994 175.146 171.353 176.494 171.726 177.841C172.637 181.05 173.009 184.605 174.703 187.351C175.742 189.045 178.745 189.841 181.017 190.251C181.543 190.354 183.263 187.3 183.378 185.631C183.866 178.611 184.033 171.566 184.123 164.52C184.135 163.057 183.314 161.582 182.66 159.361V159.374ZM131.544 89.535C131.172 89.5479 130.8 89.5607 130.428 89.5735C129.889 88.2004 129.35 86.8142 128.657 85.0304C127.476 86.6987 126.604 87.9437 125.731 89.1885C125.436 89.0474 125.141 88.9062 124.845 88.7779C125.128 87.1095 125.41 85.454 125.68 83.7857C125.179 83.683 124.666 83.5675 124.165 83.4649C119.802 91.537 119.661 100.649 119.032 109.863C121.085 108.323 122.523 106.475 123.395 104.383C124.358 102.06 124.807 99.5194 125.628 96.5035C126.116 100.443 126.36 103.626 126.912 106.757C127.463 109.914 129.106 111.711 132.661 110.351C136.703 108.798 141.067 107.81 144.699 105.615C147.406 103.973 149.973 101.111 151.102 98.2104C151.744 96.5805 149.344 93.77 148.241 91.3445C149.588 91.614 151.077 92.3584 152.334 92.076C153.99 91.7039 156.48 90.8311 156.839 89.6376C159.2 81.7964 156.788 74.674 153.258 67.9237C147.252 74.212 141.631 80.1025 135.651 86.3652C135.035 86.224 133.7 85.9032 132.327 85.5695C132.058 86.9555 131.801 88.2389 131.544 89.535ZM126.976 247.167C127.463 250.298 127.746 253.16 128.4 255.932C129.093 258.91 130.543 260.129 134.252 259.705C141.311 258.884 146.341 254.662 151.5 250.748C152.694 249.849 152.45 246.102 151.783 244.01C151.256 242.342 149.062 241.212 147.342 239.583C148.138 239.737 148.587 239.775 149.011 239.929C157.57 242.932 160.317 240.712 159.136 231.78C159.033 230.997 159.277 230.124 159.059 229.393C157.801 225.196 156.467 221.026 155.158 216.855C148.831 223.49 143.287 229.29 137.345 235.514C136.614 235.36 135.138 235.065 133.752 234.783C133.521 236.297 133.315 237.568 133.11 238.838C132.802 238.864 132.494 238.89 132.186 238.928C131.557 237.529 130.916 236.13 130.223 234.59C129.08 236.092 128.156 237.298 127.232 238.505C126.924 238.338 126.629 238.171 126.321 238.004C126.616 236.387 126.924 234.77 127.271 232.948C125.282 233.358 123.498 233.718 121.239 234.18C122.484 239.352 123.678 244.369 125.064 250.144C126.039 248.656 126.475 248.001 127.014 247.18L126.976 247.167ZM120.636 231.356C121.162 231.446 121.688 231.549 122.215 231.639C122.843 228.88 123.472 226.133 124.191 223.002C125.834 223.964 127.528 224.978 129.337 226.043C130.03 224.003 130.659 222.181 131.275 220.358C131.647 220.448 132.019 220.538 132.391 220.628C132.584 222.36 132.776 224.08 132.841 224.645C135.215 224.247 137.512 224.491 138.962 223.49C143.377 220.448 147.432 216.611 147.83 211.003C147.958 209.129 145.481 206.023 143.531 205.305C139.976 203.996 135.754 204.56 132.109 203.418C128.156 202.173 126.308 204.227 125.59 207.037C124.704 210.464 124.884 214.185 124.614 217.702C122.818 215.456 120.764 212.889 118.711 210.31C118.339 210.541 117.98 210.772 117.607 211.003L120.623 231.344L120.636 231.356ZM131.288 75.7649C133.662 75.1745 136.447 75.29 137.884 73.9554C140.977 71.0679 143.659 67.6157 145.866 63.9967C146.662 62.6877 146.29 59.12 145.315 58.5682C141.85 56.5919 137.935 55.3084 134.085 54.1406C133.405 53.9352 131.634 55.2827 131.301 56.2452C129.273 61.9561 127.412 67.744 125.782 73.5832C125.513 74.5457 126.629 75.8932 127.515 78.0364C128.464 74.8409 129.003 73.0185 129.542 71.1962C129.94 71.2604 130.351 71.3245 130.749 71.3759C130.967 73.0955 131.185 74.8024 131.301 75.7649H131.288ZM166.708 156.474C163.551 154.228 160.958 152.65 158.674 150.712C153.002 145.874 147.368 140.971 141.965 135.85C140.977 134.914 141.118 132.809 140.707 131.102C139.719 130.91 138.179 130.589 136.562 130.268C139.617 143.409 156.993 159.4 166.695 156.474H166.708ZM129.247 82.22C129.671 82.7462 130.094 83.2724 130.531 83.7985C143.107 81.8479 147.368 70.3492 154.247 61.6482C152.437 61.738 150.615 61.8407 149.793 61.8792C149.113 63.9839 149.088 65.6009 148.266 66.3837C143.98 70.4005 139.552 74.2505 135.074 78.0492C133.264 79.5892 131.211 80.834 129.26 82.22H129.247ZM153.464 210.489C148.908 220.705 139.155 225.466 129.619 231.998C138.795 233.384 150.974 222.155 153.464 210.489Z" fill="black"/>
</g>
<defs>
<clipPath id="clip0_13_360">
<rect width="77" height="266.933" fill="white" transform="translate(112 17)"/>
</clipPath>
</defs>
</svg>
