<svg width="300" height="300" viewBox="0 0 300 300" fill="none" xmlns="http://www.w3.org/2000/svg">
<path d="M266.067 144.13C264.554 144.3 263.287 144.451 261.849 144.603C261.566 143.752 261.282 142.919 260.998 142.087C261.169 142.087 261.358 142.106 261.528 142.125C261.793 141.236 262.436 140.272 262.265 139.496C260.261 131.137 258.142 122.796 255.986 114.493C255.4 112.242 254.171 110.351 251.504 109.273C255.816 125.614 260.053 141.709 264.289 157.804C264.44 157.766 264.611 157.728 264.762 157.709C264.024 154.229 263.287 150.73 262.511 147.08C263.23 146.929 263.949 146.759 264.667 146.607C266.237 146.286 266.88 146.967 266.956 148.518C267.126 151.771 267.618 155.005 267.523 158.239C267.277 166.863 270.02 174.882 272.138 183.053C276.602 200.283 281.008 217.532 285.283 234.819C286.247 238.696 286.701 242.686 287.193 246.658C287.666 250.346 286.569 251.5 282.881 251.519C271.854 251.613 260.828 251.708 249.783 251.727C247.532 251.727 245.263 251.519 243.012 251.254C240.402 250.951 238.246 249.968 236.468 247.717C235.485 246.469 233.442 245.58 231.797 245.448C223.967 244.824 216.118 244.445 208.269 244.143C204.051 243.973 199.834 244.105 195.635 244.105C194.936 248.833 194.482 253.883 193.404 258.8C192.553 262.602 191.21 266.347 189.564 269.883C186.708 276.03 181.526 279.094 174.812 278.867C167.568 278.621 160.325 278.092 153.119 277.297C126.319 274.328 99.5382 271.132 72.7384 268.2C66.6106 267.519 60.3882 267.519 54.2225 267.141C52.1989 267.028 50.1373 266.914 48.1515 266.517C40.9267 265.061 36.3875 260.938 35.6499 253.202C34.2504 253.599 33.0589 254.034 31.8484 254.28C29.7491 254.696 28.5198 253.902 28.4063 251.821C28.3306 250.195 27.5174 249.836 26.1556 249.306C22.0893 247.736 17.9285 246.261 14.2026 244.067C10.1741 241.684 10.0606 239.641 13.2191 236.256C15.0915 234.251 17.5313 232.795 19.5361 230.904C20.1791 230.298 20.5574 229.126 20.5763 228.199C20.7843 221.863 20.8411 215.508 21.0113 209.154C21.3517 196.387 21.73 183.62 22.1271 170.854C22.1839 169.227 22.3541 167.62 22.5243 165.218C24.0374 166.655 25.1154 167.544 26.0232 168.584C42.4397 186.968 55.3384 207.489 63.7358 230.752C64.3978 232.587 65.0975 234.459 66.1189 236.105C68.1615 239.358 71.3389 239.358 73.3247 236.067C74.7243 233.759 75.8402 231.244 76.8615 228.748C83.4999 212.728 93.8832 199.81 108.408 190.259C124.163 179.913 140.39 170.495 158.528 164.84C173.148 160.282 188.184 157.804 203.276 155.591C214.926 153.87 226.595 152.187 238.246 150.485C238.454 150.447 238.662 150.333 238.927 150.22C239.154 147.383 237.206 148.253 235.844 148.461C224.78 150.05 213.716 151.676 202.67 153.303C188.316 155.421 173.999 157.69 160.098 161.946C136.986 169.019 116.238 180.651 97.4956 195.744C86.9421 204.235 79.8497 215.508 74.6486 227.972C73.7219 230.204 72.7384 232.417 71.5658 234.516C70.3365 236.71 69.0315 236.653 67.8021 234.403C67.0456 233.022 66.4782 231.528 65.9486 230.034C57.5134 206.543 44.4823 185.852 28.0091 167.204C25.7395 164.65 23.3565 162.948 19.8008 163.686C18.3067 163.989 17.4745 163.156 17.7393 161.832C18.7985 156.688 18.0987 152.017 14.8835 147.685C14.2215 146.797 14.4295 145.019 14.7511 143.77C14.9591 142.938 15.9615 141.822 16.7369 141.709C17.5124 141.595 18.7985 142.352 19.2524 143.09C20.7654 145.624 21.3139 148.385 20.2169 151.317C19.3658 153.586 19.12 155.932 20.2737 158.542C20.7087 157.955 21.3328 157.426 21.5408 156.783C24.8695 145.851 29.7302 135.562 35.0069 125.463C36.7847 122.058 38.6193 118.673 40.2647 115.193C40.9267 113.793 41.4373 112.167 41.4184 110.654C41.3806 108.744 42.0993 107.571 43.688 106.909C50.4778 104.034 57.1162 100.46 64.1708 98.5872C73.2491 96.1664 82.6489 94.7479 91.9919 93.5942C112.494 91.0409 133.09 89.8872 153.743 90.3222C177.176 90.814 200.552 92.2703 223.664 96.5257C224.326 96.6392 225.007 96.6959 226.028 96.8094C225.234 93.3672 224.534 90.0763 223.74 86.8233C220.26 72.5818 217.139 58.2646 216.004 43.6259C215.569 38.0087 216.004 32.3349 216.212 26.6799C216.269 25.2992 216.836 23.8808 217.385 22.5758C219.238 18.2636 222.87 17.7718 225.725 21.5355C226.917 23.1242 227.882 25.0345 228.43 26.9636C234.085 46.7655 239.645 66.5863 245.187 86.4072C246.738 91.9298 248.1 97.4903 249.707 102.994C250.01 103.996 250.899 105.018 251.769 105.623C253.565 106.871 255.551 107.836 257.424 108.952C259.693 110.294 258.71 112.81 259.22 114.701C261.736 123.779 263.779 132.99 265.954 142.163C266.086 142.73 266.048 143.354 266.086 144.092L266.067 144.13ZM69.788 230.979C69.9582 230.771 70.0717 230.658 70.1284 230.525C70.7715 229.069 71.4145 227.632 72.0386 226.175C78.696 210.326 88.8145 197.219 103.018 187.403C117.978 177.076 133.676 168.093 150.736 161.662C151.417 161.416 152.249 160.811 152.457 160.206C153.421 157.161 154.197 154.059 155.105 150.749C152.06 149.217 150.944 146.399 151.303 142.692C152.192 133.444 153.005 124.195 153.705 114.928C153.894 112.356 155.086 111.278 157.526 111.278C158.055 111.278 158.585 111.183 159.114 111.202C167.89 111.221 176.647 111.202 185.422 111.297C189.602 111.335 189.829 111.618 190.775 115.836C193.025 125.765 195.238 135.714 197.565 145.624C198.075 147.818 197.394 148.688 195.257 148.896C189.924 149.425 184.59 150.05 179.257 150.617C176.25 150.939 172.959 150.541 170.33 151.676C167.039 153.114 163.861 153.567 160.457 153.265C156.656 152.943 156.296 153.132 155.578 156.877C155.388 157.861 155.445 158.901 155.388 160.111C182.321 151.619 210.16 149.652 237.697 144.924C237.338 143.619 237.017 142.409 236.771 141.463C234.482 141.936 232.459 142.428 230.397 142.787C228.241 143.165 226.066 143.43 223.891 143.695C220.6 144.092 220.108 143.808 219.409 140.499C217.782 132.744 216.212 124.971 214.661 117.198C213.886 113.32 214.661 112.205 218.671 112.072C222.302 111.959 225.952 112.261 229.659 112.394C228.979 109.462 228.109 106.266 227.541 103.032C227.182 100.951 226.255 100.138 224.118 99.7409C201.819 95.6746 179.313 94.0859 156.712 93.4996C132.56 92.8944 108.522 94.5398 84.578 97.5659C72.7384 99.06 61.2582 101.784 50.4589 106.966C49.9104 107.23 49.3808 107.552 48.8512 107.855C48.8891 108.157 48.9269 108.46 48.9647 108.762C51.5558 108.762 54.1658 108.762 56.7569 108.762C83.6702 108.649 110.583 108.517 137.497 108.422C139.993 108.422 142.49 108.517 144.967 108.781C147.918 109.084 148.674 109.897 148.542 112.885C148.372 116.725 148.031 120.564 147.653 124.404C146.953 131.382 146.329 138.38 145.383 145.34C144.759 149.955 143.398 150.995 138.783 151.033C130.688 151.109 122.612 151.052 114.517 151.071C113.553 151.071 112.588 151.071 111.661 151.071C111.208 153.794 110.735 154.097 108.2 153.511C107.841 153.416 107.444 153.378 107.103 153.227C102.508 151.09 97.5902 151.09 92.6728 151.071C89.2873 151.052 85.8641 151.014 82.4976 150.636C79.6606 150.314 78.8095 148.99 79.4147 146.229C80.1712 142.844 80.9845 139.458 82.1193 136.186C84.9941 127.978 87.4149 119.6 92.0865 111.826H84.8806C83.8215 117.235 83.1406 122.418 81.7789 127.392C80.001 133.765 77.7693 140.026 75.5375 146.267C74.5541 149.047 72.3791 150.617 69.2962 150.693C64.3789 150.787 59.4804 151.071 54.5819 150.957C52.8041 150.92 51.6504 152.584 50.6291 152.47C49.4375 152.338 48.4162 150.825 46.6573 150.844C42.4965 150.882 38.3356 150.749 34.1936 150.371C32.0943 150.182 30.0517 149.312 27.7821 148.688C26.6474 151.846 23.6213 155.251 25.3424 160.13C25.8152 158.466 26.0043 157.085 26.6095 155.913C26.8932 155.326 27.9145 155.118 28.5954 154.721C28.9358 155.345 29.5789 156.007 29.5411 156.612C29.4276 158.334 28.9358 160.017 28.7845 161.738C28.7089 162.475 28.8224 163.497 29.2763 164.007C43.2908 179.27 54.5252 196.368 63.263 215.13C65.646 220.237 67.5752 225.57 69.8069 230.979H69.788ZM224.288 25.564C224.042 25.6586 223.815 25.7721 223.569 25.8666C228.354 54.7468 236.6 82.9083 241.764 111.713C233.65 83.835 227.03 55.6168 220.581 27.2284C219.749 30.1599 218.784 33.1481 218.992 36.0418C219.503 43.4935 220.203 50.9453 221.413 58.3024C225.82 85.0077 232.61 111.145 240.156 137.094C249.632 169.662 260.809 201.607 274.616 232.625C276.394 236.615 278.55 240.436 280.668 244.275C281.33 245.486 282.484 246.412 283.429 247.471C283.637 247.339 283.845 247.226 284.034 247.093C283.959 246.299 283.997 245.467 283.826 244.71C280.554 230.374 277.925 215.83 273.821 201.739C259.599 152.905 245.981 103.921 233.555 54.5955C231.475 46.3305 228.96 38.179 226.539 30.0086C226.066 28.4388 225.064 27.0392 224.307 25.5829L224.288 25.564ZM47.6786 144.981C47.6786 145.113 47.6786 145.265 47.6786 145.397C51.8962 145.17 56.1139 144.943 60.3315 144.697C62.6389 144.565 64.1897 143.487 64.6247 141.123C65.9486 133.784 67.3482 126.465 68.4641 119.108C68.9558 115.798 67.9723 114.871 64.568 114.89C59.2156 114.89 53.8632 115.117 48.5108 115.174C46.5628 115.174 45.3902 116.082 44.7471 117.822C41.7778 125.954 38.8273 134.087 35.8391 142.22C35.1393 144.111 35.8391 144.962 37.7115 144.981C41.0212 145.019 44.3499 144.981 47.6597 144.981H47.6786ZM101.354 246.223C100.73 246.129 100.219 245.996 99.7084 245.958C91.7271 245.448 83.7269 245.051 75.7456 244.464C63.471 243.538 51.2154 242.554 38.9597 241.438C36.9739 241.249 36.3875 242.043 36.1228 243.632C35.6689 246.242 36.3119 247.812 38.0141 248.133C39.6406 248.455 41.2671 248.758 42.9125 248.984C61.6365 251.689 80.5117 252.162 99.3491 253.07C99.9921 253.108 100.635 253.013 101.354 252.975V246.204V246.223ZM104.248 140.99C105.988 140.99 107.709 140.99 109.449 140.99C111.567 140.99 112.758 139.969 113.156 137.832C114.461 130.947 115.879 124.101 117.165 117.217C117.657 114.625 117.127 114.02 114.574 114.001C110.886 113.982 107.179 114.001 103.491 114.209C102.753 114.247 101.581 115.042 101.411 115.685C99.5949 123.061 97.8928 130.456 96.2473 137.87C95.8123 139.855 96.9282 140.877 98.8384 140.971C100.635 141.066 102.451 140.971 104.266 140.971L104.248 140.99ZM131.842 114.096C130.329 114.172 129.043 114.209 127.756 114.304C124.503 114.531 123.823 115.004 123.047 118.124C121.534 124.271 120.04 130.437 118.716 136.64C117.695 141.35 118.168 141.728 123.028 140.801C124.503 140.517 125.752 140.366 127.189 141.501C129.175 143.052 132.844 141.633 133.411 139.099C135.038 131.666 136.438 124.177 137.875 116.687C138.159 115.25 137.421 114.38 135.889 114.304C134.452 114.228 133.014 114.153 131.823 114.096H131.842ZM111.775 253.448C112.437 253.486 112.948 253.543 113.458 253.543C125.525 253.524 137.61 253.599 149.677 253.391C155.483 253.297 161.27 252.616 167.058 252.2C168.363 252.105 169.308 251.632 169.516 250.081C169.914 247.207 169.176 246.28 166.15 246.28C148.41 246.318 130.688 246.356 112.948 246.393C112.588 246.393 112.229 246.488 111.775 246.564V253.448ZM186.652 139.496C186.652 139.496 186.671 139.326 186.69 139.231C187.522 139.231 188.354 139.231 189.186 139.231C191.985 139.175 192.212 138.985 191.701 136.167C190.737 130.815 189.753 125.482 188.6 120.167C187.162 113.547 186.425 113.169 179.673 114.134C177.573 114.436 176.079 115.363 176.004 117.425C175.758 123.439 175.701 129.472 175.644 135.487C175.644 137.075 176.703 138.002 178.179 138.248C180.997 138.721 183.834 139.08 186.671 139.496H186.652ZM253.83 238.318C256.384 238.601 258.615 238.847 260.847 239.112L260.96 239.85C259.996 240.984 258.994 242.081 258.067 243.254C256.932 244.672 257.197 245.864 258.994 246.299C261.112 246.809 263.268 247.207 265.443 247.377C269.906 247.755 274.37 247.944 279.136 248.228C276.961 244.445 275.013 241.079 272.743 237.126C270.02 239.963 267.467 242.649 264.497 245.75C264.27 244.294 264.005 243.5 264.024 242.724C264.138 238.469 265.197 234.497 268.204 231.32C269.188 230.279 269.32 229.485 268.772 228.18C266.691 223.244 264.781 218.251 262.814 213.296C262.511 212.558 262.19 211.839 261.868 211.102C261.604 211.064 261.358 211.026 261.093 210.988C260.62 212.312 259.882 213.617 259.712 214.979C258.71 222.96 258.369 231.093 253.868 238.336L253.83 238.318ZM110.716 258.138C110.829 258.346 110.943 258.536 111.056 258.744C126.508 262.621 141.96 266.498 157.128 270.281C156.05 266.176 154.859 261.694 153.667 257.155C153.667 257.155 153.611 257.079 153.535 257.079C139.88 257.117 126.225 257.155 112.55 257.249C111.945 257.249 111.321 257.836 110.716 258.138ZM71.1875 146.267C75.1593 144.281 83.4054 119.24 82.3841 114.474C78.0152 113.623 76.6345 114.399 75.8023 118.522C74.5541 124.801 73.3815 131.118 72.3034 137.416C71.7928 140.347 71.5469 143.298 71.1875 146.248V146.267ZM172.807 250.327C173.885 247.547 172.996 245.013 171.597 242.535C171.313 242.043 171.067 241.325 171.219 240.833C172.07 237.864 172.978 234.913 173.961 231.982C176.779 223.546 176.722 214.128 182.812 206.808C179.408 207.526 178.387 208.34 177.63 211.404C176.06 217.627 174.472 223.83 173.129 230.109C171.956 235.594 168.628 238.374 163.2 239.036C156.523 239.868 149.885 240.833 143.227 241.741C141.412 241.987 139.596 242.251 137.175 242.611C146.707 242.611 155.54 242.611 164.391 242.611C170.689 242.611 172.429 244.199 172.826 250.327H172.807ZM175.966 257.079C175.72 257.098 175.493 257.136 175.247 257.155C175.531 258.952 175.588 260.824 176.136 262.526C177.365 266.309 181.016 267.444 184.004 264.834C185.46 263.566 186.708 261.713 187.37 259.878C189.905 252.899 190.718 245.618 189.602 238.261C189.205 235.651 188.24 232.984 186.973 230.658C185.668 228.294 183.531 228.483 181.659 230.866C184.496 230.317 185.517 232.057 186.273 234.194C187.938 238.961 188.524 243.859 188.07 248.89C187.786 251.935 186.595 254.564 184.647 256.871C181.337 260.748 179.219 260.786 175.966 257.041V257.079ZM145.175 119.486C145.175 119.486 145.043 119.486 144.967 119.467C144.967 118.408 145.156 117.311 144.911 116.309C144.703 115.495 143.965 114.815 143.473 114.096C142.906 114.758 141.979 115.344 141.809 116.12C140.788 120.678 139.804 125.255 139.085 129.869C138.613 132.839 138.518 135.865 138.48 138.872C138.48 139.534 139.426 140.763 139.918 140.744C140.693 140.725 141.676 140.026 142.13 139.326C142.679 138.494 142.925 137.359 143.057 136.338C143.814 130.72 144.495 125.103 145.194 119.505L145.175 119.486ZM146.991 228.331C146.991 228.331 147.123 228.35 147.199 228.369C148.504 208.927 149.828 189.502 151.152 169.889C148.41 170.287 148.731 172.386 148.599 173.918C147.048 190.769 146.178 207.64 146.745 224.568C146.783 225.816 146.915 227.083 147.01 228.331H146.991ZM103.472 244.162C103.359 244.162 103.264 244.162 103.151 244.162C103.264 246.261 103.34 248.379 103.491 250.479C103.642 252.578 103.756 254.696 104.077 256.758C104.172 257.306 105.042 257.703 105.553 258.176C106.006 257.666 106.687 257.231 106.858 256.644C107.16 255.661 107.255 254.564 107.236 253.524C107.122 245.996 106.99 238.469 106.744 230.941C106.706 229.977 106.006 229.05 105.609 228.104C104.947 229.012 104.248 229.901 103.642 230.866C103.453 231.149 103.472 231.603 103.453 231.963C103.453 236.029 103.453 240.095 103.453 244.143L103.472 244.162ZM171.729 148.593C171.994 148.65 172.24 148.726 172.505 148.782C172.732 148.045 173.11 147.326 173.167 146.57C173.337 144.016 173.507 141.444 173.488 138.891C173.431 131.742 172.051 130.38 164.845 130.059C164.769 130.059 164.694 130.059 164.618 130.059C157.809 129.813 154.972 133.122 156.372 139.799C157.034 142.957 158.547 146.021 157.204 148.82C159.833 145.945 162.708 142.825 165.526 139.666C165.81 139.345 165.772 138.759 165.885 138.286C165.28 138.21 164.391 137.832 164.107 138.097C162.916 139.212 161.876 140.517 160.798 141.766C160.155 142.503 159.549 143.279 158.925 144.035C158.641 143.979 158.358 143.922 158.074 143.865C157.809 141.52 157.393 139.194 157.299 136.848C157.223 134.825 157.734 132.839 160.003 132.12C162.859 131.212 165.772 130.456 169.214 132.328C166.112 132.895 163.578 133.198 161.1 133.841C158.66 134.465 158.055 135.846 158.641 138.399C161.1 134.125 163.048 133.52 167.814 135.543C168.646 135.903 169.516 136.338 170.368 136.375C172.013 136.451 172.429 137.416 172.448 138.74C172.448 139.874 172.353 140.99 172.259 142.125C172.089 144.281 171.881 146.418 171.691 148.574L171.729 148.593ZM232.288 232.36C232.061 230.979 231.834 229.504 231.589 228.029C230.983 224.341 230.397 223.83 226.822 225.135C221.716 226.989 216.723 229.126 211.692 231.149C211.2 231.339 210.765 231.66 210.311 231.906C210.349 232.057 210.387 232.209 210.425 232.341H232.269L232.288 232.36ZM179.219 268.938C181.659 270.886 184.098 270.98 185.971 268.824C187.711 266.819 189.262 264.455 190.17 261.978C193.252 253.618 193.839 244.899 192.761 236.105C192.401 233.249 191.493 230.374 190.34 227.707C189.129 224.927 186.746 223.698 184.647 224.095C182.321 224.53 179.446 227.726 179.143 230.374C179.994 229.447 180.713 228.577 181.526 227.802C183.777 225.646 185.82 225.665 187.616 228.18C188.77 229.807 189.678 231.698 190.283 233.608C192.288 240.02 191.928 246.62 190.888 253.108C190.302 256.701 189.3 260.313 187.843 263.642C186.387 266.952 183.663 269.184 179.257 268.919L179.219 268.938ZM118.451 215.168C123.785 217.778 127.889 216.265 131.539 210.818C131.785 211.31 132.031 211.801 132.315 212.331C135.416 209.437 132.958 201.966 128.683 200.491C129.137 201.682 129.61 202.93 130.177 204.425C127.189 202.93 124.806 201.19 122.139 200.547C119.208 199.848 116.314 202.552 116.276 205.484C117.26 205.2 118.149 204.86 119.056 204.708C121.042 204.368 123.085 203.725 125.033 203.933C129.572 204.387 130.575 207.148 127.832 210.799C125.6 213.749 122.423 214.714 118.451 215.149V215.168ZM243.296 215.092C243.22 214.828 243.125 214.563 243.05 214.298C241.783 214.619 240.478 214.846 239.267 215.281C228.846 219.064 218.425 222.866 208.042 226.762C205.432 227.745 202.916 228.974 200.458 230.279C199.55 230.771 198.926 231.793 198.189 232.568C198.397 232.871 198.586 233.154 198.794 233.457C206.794 230.941 214.491 227.651 222.264 224.53C222.189 224.322 222.113 224.114 222.056 223.906C217.971 225.286 213.867 226.667 209.782 228.048L209.612 227.556C220.846 223.395 232.08 219.234 243.315 215.054L243.296 215.092ZM83.7269 137.075C84.578 138.115 85.1454 139.42 86.0532 139.78C87.4339 140.309 88.8902 139.742 89.6089 138.191C89.798 137.775 89.9871 137.359 90.0817 136.924C90.9328 132.252 91.8217 127.6 92.5404 122.909C92.616 122.399 91.746 121.359 91.1597 121.226C89.0226 120.715 87.2636 122.701 87.9256 125.028C88.5308 127.108 87.8878 128.489 86.753 130.191C85.448 132.12 84.8239 134.503 83.7458 137.094L83.7269 137.075ZM30.8839 252.899C31.4891 251.349 32.2645 250.214 32.3212 249.06C32.586 241.76 32.7562 234.459 32.7941 227.159C32.7941 225.967 32.0943 224.776 31.6025 223.225C29.3708 226.1 28.7845 249.514 30.8839 252.899ZM109.77 206.713C112.872 200.491 117.335 197.143 124.144 197.729C131.274 198.335 134.13 203.309 135.851 209.797C137.459 206.278 136.305 202.477 133.128 199.356C128.57 194.892 121.761 193.871 115.728 196.746C111.737 198.637 109.335 202.382 109.77 206.713ZM27.4039 203.365C29.0115 204.708 31.716 205.522 30.4867 208.037C29.6545 209.702 27.7443 210.837 26.3258 212.199C26.3258 212.388 26.3258 212.558 26.3258 212.747C28.1604 212.444 30.0139 212.142 32.3212 211.764C34.3071 209.059 33.1534 205.295 33.3425 201.758C33.5317 201.758 33.7208 201.72 33.9289 201.72C34.2504 203.403 34.5719 205.087 34.9123 206.808C37.4845 202.514 37.2008 198.297 34.0612 195.649C34.3828 197.067 34.6475 198.354 35.0258 200.056C34.118 199.242 33.5695 198.713 32.7752 197.994C32.4725 200.283 32.2267 202.25 31.943 204.481C29.6924 201.172 29.56 201.153 27.4039 203.365ZM135.568 191.394C135.624 191.545 135.662 191.696 135.719 191.866C136.702 191.564 137.761 191.356 138.688 190.921C141.998 189.37 143.927 185.417 142.981 182.315C141.998 179.081 138.007 176.812 134.452 177.455C130.631 178.154 127.794 181.426 127.908 185.001C127.983 187.705 129.496 189.37 132.012 189.351C131.671 188.784 131.369 188.273 131.066 187.781C129.288 184.906 129.856 182.013 132.504 180.292C135.151 178.589 138.348 179.138 140.145 181.634C142.036 184.263 141.601 187.081 138.915 189.181C137.856 189.994 136.702 190.675 135.586 191.412L135.568 191.394ZM27.8578 240.398C24.4535 239.225 21.2193 238.109 17.6069 236.842C16.9828 237.561 15.9804 238.696 14.8835 239.963C18.7795 243.348 23.1863 244.71 27.8578 245.939V240.398ZM156.334 115.874C156.391 116.139 156.448 116.422 156.504 116.687C158.963 116.063 161.403 115.42 163.861 114.834C166.377 114.228 166.528 114.474 166.415 117.027C166.245 120.64 166.169 124.252 166.245 127.865C166.245 128.47 167.133 129.056 167.625 129.642C167.985 129.056 168.628 128.489 168.646 127.902C168.817 123.458 168.911 118.994 168.892 114.55C168.892 114.02 168.098 113.075 167.663 113.056C163.635 112.942 159.814 113.793 156.353 115.874H156.334ZM73.0789 256.852C73.1734 257.155 73.2491 257.476 73.3436 257.779C82.8002 258.157 92.2756 258.536 101.751 258.914C101.959 257.231 101.24 256.833 99.9354 256.777C91.8595 256.436 83.7836 256.02 75.7078 255.736C74.8378 255.699 73.9489 256.455 73.0789 256.833V256.852ZM54.8656 239.566C54.8656 239.433 54.9034 239.301 54.9223 239.169C53.466 238.904 52.0097 238.469 50.5534 238.374C44.4634 237.996 40.5484 235.178 38.676 229.164C37.806 226.346 36.1417 223.66 34.3639 221.277C32.3212 218.534 29.2385 219.272 28.1037 222.487C31.943 220.293 33.0399 220.634 35.0636 224.795C35.5175 225.74 35.9525 226.705 36.3308 227.688C37.3899 230.355 38.241 233.116 39.546 235.632C40.1702 236.823 41.5319 238.223 42.7234 238.412C46.7141 239.055 50.7993 239.206 54.8467 239.547L54.8656 239.566ZM134.773 212.539C131.596 216.246 127.605 217.873 122.971 218.232C117.978 218.61 114.404 216.019 111.018 212.426C111.359 216.341 117.298 221.144 123.047 220.842C128.059 220.577 135.095 216.643 134.773 212.539ZM184.004 246.583C186.519 243.235 185.99 239.887 182.226 237.92C181.715 237.656 180.656 237.637 180.278 237.977C178.519 239.547 178.878 241.949 180.902 243.197C181.318 243.443 181.678 243.764 182.075 244.048C182.018 244.237 181.942 244.445 181.886 244.634C180.6 244.37 179.313 244.105 177.706 243.783C177.63 244.786 177.573 245.902 177.498 247.018C179.805 246.866 181.772 246.734 184.004 246.583ZM250.653 234.478C250.766 234.762 250.88 235.064 250.993 235.348C251.788 235.046 252.922 234.97 253.32 234.384C254.265 232.984 255.154 231.395 255.57 229.769C257.518 222.166 257.651 214.411 256.781 206.656C256.592 204.992 255.873 203.309 255.079 201.815C254.265 200.283 253.225 200.264 251.447 201.38C253.925 202.098 254.7 204.065 255.097 206.184C256.308 212.69 256.554 219.234 255.4 225.74C254.814 229.088 254.435 232.719 250.653 234.478ZM115.841 209.456C116.011 209.778 116.22 210.515 116.711 211.026C118.962 213.352 124.503 212.463 126.016 209.608C126.622 208.454 126.414 207.81 125.033 207.583C123.123 207.28 121.231 206.864 119.321 206.505C117.43 206.146 115.936 207.243 115.86 209.475L115.841 209.456ZM253.32 192.623C253.528 192.547 253.717 192.49 253.925 192.415C249.461 179.327 244.998 166.22 240.534 153.132C243.674 166.674 247.665 179.932 253.32 192.623ZM175.171 276.749C174.056 274.46 172.94 272.512 172.145 270.451C171.086 267.727 170.33 264.871 169.29 262.148C168.93 261.183 168.079 260.408 167.152 259.16C165.772 265.514 170.443 275.538 175.171 276.768V276.749ZM245.962 240.417C246.227 240.303 246.492 240.171 246.776 240.058C243.201 233.116 243.787 225.608 243.371 218.024C242.539 218.478 241.688 219.083 241.65 219.745C241.31 225.57 241.385 231.376 243.598 236.899C244.109 238.185 245.168 239.263 245.962 240.417ZM251.069 210.799C253.149 211.688 253.244 212.463 252.355 214.355C251.996 215.13 252.393 216.303 252.582 217.267C252.62 217.456 253.622 217.664 253.679 217.589C254.076 216.832 254.795 215.887 254.606 215.263C253.887 213.088 252.96 210.95 251.863 208.946C251.258 207.829 250.123 207.905 249.669 209.191C248.932 211.291 248.194 213.428 247.873 215.622C247.759 216.359 248.856 217.891 249.537 217.967C250.993 218.137 251.126 216.757 251.088 215.546C251.05 214.071 251.088 212.577 251.088 210.818L251.069 210.799ZM102.924 226.516C103.945 226.213 104.342 226.062 104.777 225.948C107.652 225.23 109.033 225.986 109.921 228.785C110.167 229.58 110.375 230.393 110.489 231.206C110.924 234.478 111.264 237.788 111.756 241.041C111.851 241.627 112.456 242.592 112.872 242.611C115.104 242.762 117.354 242.686 119.605 242.686C118.867 242.214 118.149 242.119 117.411 241.987C114.063 241.381 113.572 240.89 112.966 237.58C112.834 236.842 112.815 236.086 112.664 235.348C112.096 232.719 111.794 229.958 110.829 227.48C109.486 224 106.252 223.509 102.905 226.497L102.924 226.516ZM242.104 240.436C241.31 237.429 240.307 234.535 239.797 231.547C239.324 228.823 239.419 225.986 239.135 223.225C239.021 222.09 238.549 221.012 238.246 219.896C235.636 224.511 238.53 237.977 242.104 240.417V240.436ZM198.151 225.721C198.813 220.35 197.678 215.225 196.07 210.194C194.614 205.635 189.3 204.746 185.99 208.529C186.765 208.397 187.408 208.265 188.07 208.17C191.985 207.64 193.631 208.511 195.125 212.161C195.768 213.749 196.278 215.433 196.638 217.116C197.224 219.953 197.64 222.847 198.132 225.703L198.151 225.721ZM162.916 258.857C162.594 259.084 162.273 259.311 161.951 259.538C163.502 264.588 164.334 269.883 167.341 274.404C168.022 275.425 169.29 276.03 170.311 276.824C169.403 274.328 168.041 272.248 167.19 269.978C166.093 267.028 165.469 263.926 164.486 260.919C164.24 260.143 163.445 259.538 162.916 258.857ZM164.24 275.028C164.391 274.895 164.542 274.782 164.694 274.649C163.256 269.827 161.857 265.004 160.344 260.219C160.192 259.727 159.398 259.443 158.906 259.065C158.698 259.708 158.15 260.446 158.32 260.956C159.587 264.89 160.949 268.805 162.424 272.664C162.765 273.553 163.635 274.233 164.259 275.009L164.24 275.028ZM247.532 225.135C246.87 226.875 247.211 230.355 248.421 231.452C248.894 231.887 250.142 232.038 250.672 231.717C252.639 230.544 254.152 225.74 253.509 223.357C251.379 226.408 249.386 227 247.532 225.135ZM184.288 235.197C184.401 235.027 184.515 234.875 184.628 234.705C183.663 234.081 182.699 232.965 181.734 232.984C180.543 232.984 179.068 233.665 178.273 234.554C176.231 236.842 174.718 246.223 175.663 249.646C175.852 248.568 175.947 247.774 176.136 246.98C176.817 243.973 177.233 240.89 178.273 238.015C179.521 234.611 181.035 234.1 184.288 235.178V235.197ZM41.8912 252.219C42.591 258.384 45.8441 263.604 49.0025 264.815C47.5084 261.297 45.9197 257.401 44.1608 253.561C43.9149 253.013 42.9504 252.805 41.8912 252.219ZM44.4067 263.869C43.2341 260.843 41.6454 257.533 40.7375 254.034C40.2458 252.143 39.5649 251.973 38.0708 252.219C38.2221 257.344 40.8699 261.864 44.4067 263.869ZM54.6575 265.704C50.9884 262.829 48.8891 258.971 47.5462 254.658C47.1112 253.278 46.3925 252.956 44.9362 253.372C47.0356 258.554 48.8512 263.737 54.6575 265.704ZM234.728 221.693C233.007 225.74 235.182 237.448 237.225 238.961C236.411 233.306 235.56 227.499 234.728 221.693ZM29.3708 177.492C28.3117 179.913 27.2526 182.353 26.1745 184.85C26.5339 184.736 26.8554 184.642 27.2904 184.528C27.0256 185.171 26.7987 185.739 26.4771 186.476C29.9193 184.717 30.9595 181.086 29.3708 177.492ZM255.419 197.805C250.747 196.822 246 200.51 245.944 204.973C247.362 200.302 251.901 199.772 255.419 197.805ZM254.341 209.986C254.473 207.394 254.19 205.427 252.45 204.103C251.939 203.706 250.539 203.592 250.237 203.952C249.348 204.992 248.818 206.335 248.156 207.564L248.667 207.848C250.093 206.146 251.984 206.864 254.341 210.005V209.986ZM192.571 173.615C196.089 173.785 199.021 173.994 201.971 172.159C199.834 170.703 195.276 171.459 192.571 173.615ZM36.2741 206.94C34.7043 210.478 33.021 213.882 28.6332 215.641C33.5506 215.849 36.7469 211.953 36.2741 206.94ZM178.727 217.059C181.564 216.605 184.004 216.208 186.784 215.773C185.044 215.149 183.38 214.582 181.602 213.939C182.056 213.22 182.453 212.596 182.85 211.972C182.642 211.858 182.453 211.745 182.245 211.612C181.072 213.428 179.881 215.244 178.708 217.04L178.727 217.059ZM22.6 197.389C23.7158 196.5 24.983 195.63 26.08 194.59C27.5174 193.209 27.9145 193.096 29.4465 194.268C29.9949 194.665 30.5056 195.119 31.3945 195.838C30.2975 192.963 28.8224 191.98 26.6285 192.301C24.34 192.642 22.7513 194.741 22.5811 197.389H22.6ZM161.441 152.168C167.587 152.83 170.122 151.222 170.33 146.494C169.025 151.052 165.185 151.506 161.441 152.168ZM27.9524 178.23C27.9713 176.225 27.4985 174.882 25.645 174.674C24.34 174.523 23.1295 176.131 23.1295 177.719C25.0398 175.393 25.1343 175.393 27.9335 178.23H27.9524ZM100.957 241.117H91.0841C91.0841 241.325 91.0841 241.533 91.0841 241.741C93.6184 242.006 96.1528 242.27 98.6871 242.516C99.9165 242.63 100.938 242.403 100.976 241.136L100.957 241.117ZM30.411 198.202C30.5812 198.032 30.7325 197.881 30.9028 197.71C30.3732 197.049 29.9382 196.084 29.2574 195.838C28.7089 195.649 27.8389 196.311 26.723 196.746C28.2739 197.351 29.333 197.767 30.411 198.183V198.202Z" fill="#154183"/>
</svg>
