<svg width="555" height="337" viewBox="0 0 555 337" fill="none" xmlns="http://www.w3.org/2000/svg">
<path d="M220.127 143.267C214.86 144.691 205.987 149.531 200.625 153.849C198.632 155.51 198.347 155.557 196.117 155.272C184.112 153.659 164.942 154.75 153.127 157.692C129.165 163.718 112.605 176.672 108.097 192.853C104.586 205.664 111.419 217.242 124.467 220.564C127.979 221.465 134.195 221.513 134.195 220.659C134.195 219.472 133.435 219.045 130.826 218.761C125.938 218.286 121.478 215.249 119.248 210.884C115.974 204.336 116.638 195.89 121.146 186.874C130.636 167.894 156.022 156.364 186.058 157.36C190.281 157.455 194.124 157.74 194.551 157.929C195.168 158.167 194.077 159.495 189.142 164.24C180.364 172.781 174.527 179.187 155.168 201.726C133.625 226.78 126.318 234.941 117.397 243.814C99.556 261.561 85.5582 272.332 70.5165 279.924C58.6066 285.902 47.5032 288.655 35.356 288.655C24.5848 288.655 18.0841 286.614 12.7223 281.679C4.32361 273.898 3.80166 260.659 11.2513 245.712C14.9999 238.263 18.7484 233.233 25.7236 226.258C38.1081 213.921 54.5258 205.522 71.3232 202.96C96.3294 199.164 110.042 205.949 106.958 220.659C104.681 231.714 93.6722 243.53 79.3897 250.457C67.3848 256.246 51.2992 258.097 42.3786 254.68C39.9112 253.731 37.8708 251.786 37.8708 250.362C37.8708 249.508 37.5861 249.271 36.6846 249.271C35.6881 249.271 35.4983 249.508 35.4983 250.552C35.5458 254.111 39.5791 258.808 44.3241 260.944C49.9232 263.411 58.5591 263.506 67.7644 261.134C83.4704 257.1 98.0851 246.092 105.867 232.426C108.809 227.207 110.185 222.557 110.185 217.432C110.185 213.778 110.042 213.019 108.666 210.22C106.104 205.047 101.834 201.963 94.5738 200.16C90.1134 199.021 78.0611 198.974 71.0859 200.113C53.4345 202.912 37.6336 210.741 24.4425 223.173C7.21807 239.449 -1.89236 261.086 1.5715 277.456C3.84911 288.322 11.8682 295.725 23.968 298.24C27.9538 299.046 29.7569 299.141 36.4473 298.951C48.5471 298.524 57.0882 296.152 69.8997 289.698C93.5299 277.741 116.733 255.724 155.784 208.227C175.761 183.932 181.692 177.099 192.796 165.854L199.913 158.594L203.567 159.733C216.094 163.718 222.072 171.832 220.601 182.841C219.984 187.349 219.13 190.101 216.71 194.893C206.746 214.68 179.889 231.003 154.266 232.948C150.375 233.233 149.663 233.138 147.291 232.189C144.823 231.145 144.634 231.145 143.447 231.904C141.787 232.996 141.929 235.416 143.78 236.412C144.823 237.029 145.44 237.029 148.192 236.507C152.368 235.653 154.93 236.365 157.682 239.022C161.146 242.391 162.617 248.132 162.665 258.524C162.665 264.55 162.285 268.156 160.197 281.063C158.252 293.352 158.157 300.185 159.913 305.12C164.136 317.03 171.348 322.866 184.017 324.764C193.507 326.14 208.691 322.771 215.192 317.789C218.276 315.464 216.378 314.942 212.108 316.935C206.888 319.402 205.227 319.972 200.625 320.921C194.788 322.107 186.152 322.202 182.973 321.11C179.937 320.114 177.184 317.552 175.666 314.42C172.961 308.679 172.582 300.992 173.863 279.924C175.239 257.622 173.958 248.464 168.501 241.204C167.315 239.591 165.417 237.788 164.183 237.076L162 235.795L163.376 235.416C164.183 235.273 167.078 234.751 169.877 234.324C183.448 232.284 197.351 227.017 208.217 219.757C213.816 216.056 221.076 208.938 224.255 204.098C233.033 190.623 232.416 176.767 222.594 167.087C218.608 163.149 212.725 159.543 207.458 157.835C205.275 157.123 203.472 156.364 203.472 156.174C203.472 155.747 207.41 152.805 211.538 150.148C215.239 147.775 221.076 145.45 224.54 145.07C227.055 144.786 227.197 144.786 227.197 145.782C227.197 146.352 227.719 147.348 228.383 148.012C229.759 149.388 231.135 149.246 232.559 147.633C233.698 146.304 233.555 145.023 232.179 143.694C231.135 142.603 230.661 142.508 226.865 142.556C224.587 142.556 221.55 142.888 220.127 143.267Z" fill="#154183"/>
<path d="M425.73 168.653C422.55 171.88 418.707 173.208 416.951 171.642C416.192 170.978 415.765 171.405 410.973 177.858C408.173 181.702 399.537 193.28 391.898 203.624L377.9 222.367L377.378 219.947C376.239 214.964 373.534 213.019 367.651 213.066C359.11 213.161 349.762 217.574 340.699 225.688C336.144 229.769 332.87 233.47 327.887 240.16C318.065 253.399 305.681 265.831 295.242 272.901C290.544 276.128 286.511 277.646 286.511 276.222C286.511 274.751 291.873 267.159 310.283 242.58C321.244 227.966 331.067 214.727 332.11 213.161L334.008 210.362H332.395C331.351 210.362 330.45 210.694 329.88 211.358C328.599 212.829 325.088 214.3 323.712 213.968C323.095 213.778 322.336 213.161 321.956 212.497C321.292 211.216 321.861 210.551 311.897 223.98C311.565 224.407 311.422 223.743 311.422 221.655C311.422 217.906 310.283 215.771 307.389 214.205C305.681 213.256 304.684 213.066 301.647 213.066C288.978 213.209 274.933 222.604 262.786 239.069C261.03 241.441 258.468 244.383 257.044 245.665C254.624 247.752 246.937 252.07 246.416 251.596C246.321 251.453 247.08 250.172 248.171 248.749C256.475 237.835 261.552 226.352 260.651 220.469C259.986 215.913 256.238 213.066 250.971 213.114C246.843 213.161 243.948 213.825 239.63 215.818C226.344 221.987 212.299 236.791 204.612 252.829C201.196 259.852 199.962 264.739 200.247 270.149C200.484 275.416 201.907 278.358 204.897 280.066C206.795 281.11 207.127 281.157 209.737 280.683C216.569 279.402 225.585 273.091 236.356 262.13C242.287 256.104 243.616 254.965 244.802 254.965C246.7 254.965 251.54 253.304 253.865 251.833C254.957 251.121 255.668 250.884 255.526 251.216C249.927 264.075 249.452 274.846 254.292 278.927C258.8 282.676 265.443 279.449 279.298 266.875L283.711 262.889L282.43 265.688C280.959 269.01 280.39 274.135 281.291 276.317C282.193 278.5 284.376 280.113 286.416 280.113C291.73 280.066 303.166 272.094 314.554 260.564L319.584 255.439L318.397 259.33C316.879 264.455 316.642 272.047 317.97 275.463C319.584 279.639 323 281.347 327.128 279.924C330.26 278.88 336.286 274.704 342.644 269.2L348.149 264.455L347.2 266.685C345.966 269.532 345.539 273.755 346.251 275.938C347.152 278.69 348.813 279.876 351.66 279.876C355.93 279.876 361.719 276.27 369.833 268.583C372.016 266.543 373.819 264.882 373.819 264.977C373.819 265.072 373.392 266.305 372.87 267.681C370.45 273.992 372.775 280.113 377.568 280.113C380.225 280.113 385.444 277.314 390.664 273.138C395.836 268.963 405.184 259.567 410.878 252.829C415.385 247.468 426.251 232.995 431.044 225.925C433.084 222.983 434.745 220.516 434.84 220.421C434.887 220.326 436.691 220.089 438.873 219.852C441.056 219.662 444.33 219.14 446.086 218.713C449.787 217.859 450.214 217.811 450.214 218.333C450.214 218.57 447.224 221.939 443.523 225.83C432.847 237.123 426.631 245.237 421.506 254.68C415.718 265.356 415.385 274.514 420.605 278.547C425.16 282.011 431.281 279.449 442.432 269.342L446.797 265.451L445.896 267.824C444.804 270.623 444.71 274.894 445.706 276.792C446.702 278.737 448.695 280.113 450.498 280.113C454.295 280.113 461.27 276.175 469.194 269.484C471.614 267.492 472.8 266.685 472.136 267.539C461.365 281.869 436.548 316.65 430.19 326.472C424.116 335.725 424.448 335.108 425.113 335.915C425.587 336.484 426.109 336.152 428.577 333.827C432.847 329.699 435.836 328.418 436.88 330.268C437.402 331.265 436.738 332.071 445.991 319.449C449.692 314.372 456.24 305.547 460.463 299.805C468.292 289.319 487.367 263.506 497.759 249.461C504.449 240.398 510.997 232.995 517.166 227.444C525.754 219.757 532.065 215.676 535.861 215.439L537.759 215.344L537.902 217.621C537.997 218.855 537.712 221.133 537.285 222.604C535.434 229.01 525.944 245.095 518.447 254.727L515.837 258.049L511.614 258.903C503.358 260.611 493.773 266.258 489.455 271.999C485.944 276.697 486.039 279.164 489.692 280.161C493.868 281.252 502.361 279.069 509.242 275.084C514.129 272.284 516.264 270.576 521.863 265.119C526.087 261.038 526.561 260.706 529.171 260.184C535.624 258.903 541.508 255.629 547.202 250.22C550.476 247.088 554.604 242.248 554.604 241.536C554.604 241.347 554.035 241.204 553.37 241.204C552.469 241.204 550.855 242.533 546.87 246.566C541.223 252.213 536.858 255.249 532.255 256.578C530.879 257.005 529.693 257.242 529.598 257.147C529.503 257.053 531.116 254.443 533.204 251.359C540.084 241.109 544.355 231.097 544.924 223.932C545.541 216.483 542.789 212.734 536.715 212.734C533.204 212.734 530.547 213.968 523.714 218.665C520.867 220.611 518.447 222.224 518.305 222.224C518.21 222.224 520.393 219.235 523.145 215.629C527.652 209.602 528.459 207.989 526.988 207.989C526.751 207.989 525.47 208.938 524.189 210.077C521.531 212.449 517.498 214.632 515.742 214.632C515.126 214.632 514.177 214.253 513.702 213.825C513.18 213.351 512.658 213.209 512.421 213.493C512.184 213.731 507.771 219.567 502.551 226.495C497.379 233.422 492.065 240.445 490.784 242.106C482.954 252.26 471.329 264.075 463.073 270.291C456.145 275.558 450.688 278.12 450.688 276.128C450.688 274.846 456.667 266.353 472.705 245C481.578 233.138 490.973 220.516 493.536 217.005L498.186 210.599L496.667 210.457C495.576 210.314 494.864 210.599 493.915 211.5C492.255 213.066 489.265 214.3 487.842 213.92C487.225 213.778 486.466 213.161 486.181 212.497C485.706 211.453 485.09 212.165 475.173 225.214C469.384 232.853 462.361 242.011 459.514 245.617C446.987 261.608 432.23 275.463 426.584 276.602C425.065 276.887 425.065 276.887 425.065 275.036C425.065 270.955 427.58 265.072 432.515 257.575C435.504 253.019 440.771 246.329 451.542 233.422C459.04 224.407 460.89 221.275 460.89 217.811C460.89 215.961 460.653 215.296 459.799 214.585C457.711 212.924 455.813 212.971 448.126 214.822C444.188 215.723 440.107 216.625 439.016 216.815L437.07 217.1L438.636 213.873C441.483 207.847 440.724 203.719 436.738 203.719C435.504 203.719 434.84 204.051 434.081 205C433.132 206.186 433.037 206.708 433.274 210.267C433.416 212.402 433.322 215.059 433.084 216.103C432.562 218.333 428.292 224.834 420.985 234.561C418.138 238.31 414.769 242.77 413.487 244.478C406.892 253.304 394.175 266.637 387.58 271.667C381.886 275.938 377.615 277.883 377.615 276.128C377.615 274.941 383.214 266.875 394.982 251.169C401.293 242.675 412.206 227.966 419.229 218.476L431.945 201.156L438.446 201.299C442.479 201.346 445.326 201.204 445.896 200.872C447.082 200.255 447.177 198.879 446.133 197.787C445.469 197.17 444.567 197.076 439.917 197.36L434.46 197.692L439.443 190.86C443.808 184.881 444.377 183.932 443.761 183.315C443.286 182.841 442.906 182.746 442.479 183.078C437.45 186.874 434.84 187.538 433.227 185.498L432.325 184.312L427.485 190.955L422.645 197.55H416.24C409.502 197.55 407.983 197.93 407.983 199.496C407.983 200.397 408.6 200.777 411.542 201.678C416.572 203.149 413.725 209.602 399.727 228.203C389.383 242.011 383.736 249.318 380.51 253.067C372.728 262.082 362.621 271.477 357.117 274.799C354.222 276.507 351.518 277.456 351.518 276.744C351.518 274.941 355.693 268.868 369.311 250.694C387.295 226.779 429.004 169.507 429.241 168.463C429.288 168.178 428.956 167.657 428.482 167.324C427.675 166.85 427.295 167.04 425.73 168.653ZM418.802 202.77C417.663 204.288 416.999 204.573 416.999 203.529C416.999 203.149 416.856 202.532 416.714 202.105C416.477 201.488 416.761 201.346 418.138 201.346H419.893L418.802 202.77ZM255.051 217.005C257.234 218.286 257.709 219.567 257.471 222.888C257.187 226.163 255.431 230.386 252.015 236.08C249.784 239.781 249.357 240.208 248.788 239.306C248.219 238.405 243.663 238.784 241.67 239.923C236.451 242.865 234.173 250.172 237.4 253.541L238.634 254.822L232.323 261.181C222.643 270.955 213.865 277.077 208.882 277.646L206.795 277.883V275.89C206.795 270.339 213.533 256.625 223.307 242.39C228.527 234.751 233.129 229.199 238.729 223.837C246.131 216.672 251.113 214.585 255.051 217.005ZM307.294 218.238C308.29 219.377 308.433 219.899 308.243 222.319C307.721 229.674 296.997 245 281.766 260.184C271.374 270.576 263.403 276.602 259.464 277.124L257.566 277.409V275.7C257.566 269.864 265.49 253.778 274.791 240.73C281.434 231.382 289.5 222.794 294.34 219.899C300.319 216.245 305.111 215.676 307.294 218.238ZM373.25 218.238C374.246 219.377 374.388 219.947 374.199 222.224C373.867 226.637 371.067 231.714 363.143 242.153C350.047 259.425 330.497 277.266 324.708 277.266C323.664 277.266 323.522 277.077 323.522 275.558C323.522 271.382 328.694 259.567 334.815 249.745C341.173 239.496 347.484 231.382 353.937 225.071C361.719 217.479 370.071 214.537 373.25 218.238ZM511.377 263.363C505.256 270.054 499.562 274.799 495.434 276.602C488.174 279.829 488.506 274.941 495.956 269.01C499.325 266.353 503.31 264.218 507.866 262.747C512.848 261.133 513.37 261.228 511.377 263.363Z" fill="#154183"/>
<path d="M195.221 1.02664C191.917 2.03038 187.107 4.45605 182.967 7.25812L180.499 8.931L177.739 8.26186C171.215 6.71443 169.04 6.54715 157.372 6.54715C147.167 6.58897 145.034 6.71443 140.643 7.50905C121.53 10.9803 108.189 18.9683 102.627 30.2184C96.3536 42.8486 100.118 55.7716 111.702 61.2921C115.048 62.9232 119.983 64.0524 123.496 64.0524H125.838L125.169 62.7977C124.625 61.7522 124.249 61.5431 122.952 61.5431C119.607 61.5431 115.341 59.5356 113.041 56.859C109.988 53.3041 108.607 49.331 108.607 43.936C108.566 27.1654 122.534 14.0751 144.616 10.2275C147.502 9.68379 151.14 9.51651 157.999 9.47469C166.949 9.47469 169.626 9.72562 175.23 10.9803L177.195 11.4403L169.835 18.5919C160.759 27.4581 155.239 33.5641 137.883 53.806C118.77 76.1389 112.204 83.2487 99.0302 95.9625C81.214 113.193 62.5614 124.318 45.498 127.915C40.3121 129.002 26.7199 129.002 23.1233 127.873C13.0023 124.694 7.81641 118.128 7.81641 108.384C7.81641 104.369 8.27645 101.483 9.57293 97.51C13.6715 84.9634 24.7125 71.8731 38.4301 63.2578C45.1216 59.0756 56.4554 54.7679 64.527 53.3459C70.4657 52.3422 79.332 52.0913 83.5142 52.8859C93.6351 54.8515 98.2355 60.0793 96.8972 68.2346C96.1444 73.0441 93.1751 78.481 88.7001 83.3323C78.2865 94.5824 62.9378 100.939 47.7982 100.312C39.4338 99.9356 35.879 98.43 35.879 95.1679C35.879 93.8296 35.8371 93.7878 34.8334 94.2478C33.4951 94.8333 33.4533 96.3808 34.6661 98.9737C36.5481 102.989 43.1978 106.293 49.3038 106.293C65.949 106.293 83.0542 97.4681 93.5097 83.4996C95.9772 80.1957 99.2811 73.2532 99.9084 69.9911C100.954 64.5124 99.8248 59.5774 96.6881 56.148C88.5328 47.0726 64.1924 47.449 44.3688 56.9426C31.9059 62.8814 20.1957 73.1277 12.7932 84.5451C6.43628 94.2897 3.25781 103.825 3.25781 113.026C3.25781 118.295 3.8015 120.763 5.80895 124.987C8.52738 130.675 12.7514 134.23 19.7775 136.655C22.9978 137.785 23.416 137.826 31.4877 137.868C38.681 137.868 40.4794 137.743 44.2434 136.906C58.2537 133.853 72.7241 126.325 86.9436 114.782C102.376 102.236 117.014 86.6362 141.689 56.3153C159.296 34.7352 169.542 23.1087 177.321 16.0826L181.085 12.6113L184.096 14.2006C187.651 16.0407 191.624 19.8465 193.297 23.0668C194.384 25.0325 194.552 25.9107 194.719 29.5911C194.886 33.1878 194.761 34.3588 193.966 36.9099C192.168 42.8486 188.947 47.7418 183.469 52.9277C173.264 62.505 160.885 67.7745 145.453 69.071C140.35 69.5311 139.932 69.4892 138.092 68.6946C135.708 67.6072 134.495 67.6072 133.617 68.5691C132.655 69.6147 132.739 70.4093 133.784 71.7894C134.579 72.7932 134.913 72.8768 136.419 72.6677C143.487 71.6221 148.004 72.0822 152.562 74.3406C155.783 75.9716 157.246 77.4772 158.668 80.5721C163.018 90.0656 156.075 107.045 142.107 120.93C132.864 130.173 124.542 134.146 116.763 133.059C111.953 132.431 109.737 131.051 108.44 127.915C106.474 123.147 109.193 115.995 115.675 108.802C124.625 98.9737 138.092 92.4913 150.973 91.7803L155.866 91.5294L155.197 90.2748L154.57 89.0201L150.011 89.271C141.312 89.7729 133.826 91.7803 126.173 95.6698C109.988 103.909 100.41 119.634 105.471 129.629C107.771 134.104 112.622 136.404 119.983 136.404C126.674 136.404 132.864 134.899 139.932 131.595C155.323 124.36 167.953 107.589 169.124 92.9095C169.835 83.7087 164.9 75.6371 156.41 72.1658L154.068 71.2458L155.532 70.9948C156.326 70.8694 158.752 70.4511 160.927 70.0747C180.834 66.8126 195.974 57.9882 202.038 46.1107C204.38 41.5521 204.965 38.7083 204.756 33.5223C204.631 29.842 204.463 29.2147 202.874 25.9107C199.988 19.8884 194.844 15.1207 187.275 11.4821L184.18 10.0184L185.351 9.05647C189.157 6.00346 196.392 2.78317 200.448 2.32314C202.707 2.03038 202.749 2.0722 202.749 3.15958C202.749 4.74881 204.212 6.04529 205.593 5.71071C208.144 5.1252 208.813 2.44859 206.847 0.775711C205.551 -0.311661 199.319 -0.186188 195.221 1.02664Z" fill="#154183"/>
<path d="M243.691 22.9002C241.098 25.7023 236.331 27.2915 235.411 25.6605C235.16 25.2004 234.867 25.075 234.616 25.3677C234.365 25.5768 225.875 37.0779 215.671 50.8791C205.508 64.6804 193.84 80.4055 189.783 85.8005C185.726 91.1955 181.251 97.3015 179.871 99.3926C173.096 109.388 171.381 115.16 174.016 119.133C176.985 123.566 182.924 121.307 193.798 111.479L197.687 107.966L196.809 109.932C195.638 112.525 195.554 116.791 196.6 118.714C199.36 123.9 206.888 121.015 219.56 109.89L223.199 106.67L222.153 109.095C219.476 115.118 220.857 120.638 225.206 121.224C229.555 121.767 238.129 116.163 249.379 105.373C252.098 102.78 254.189 101.024 254.021 101.484C252.892 104.453 252.307 107.757 252.307 111.312C252.307 114.825 252.432 115.578 253.478 117.669C255.443 121.642 257.702 122.437 263.389 120.973C269.997 119.3 280.118 113.487 288.859 106.377C294.84 101.484 294.505 101.651 293.501 103.951C290.406 111.186 290.825 118.003 294.463 120.68C296.303 122.018 299.775 121.851 302.911 120.22C306.006 118.631 312.196 113.905 316.42 109.89C318.134 108.259 319.431 107.213 319.305 107.548C317.214 112.817 316.963 116.08 318.385 118.84C321.271 124.444 333.107 120.345 346.908 108.928C349.208 107.046 354.06 102.446 357.698 98.6817C370.37 85.7587 380.282 71.9574 381.118 66.1442C381.788 61.4601 378.149 58.7835 374.301 61.1255C372.168 62.422 371.29 64.2622 371.29 67.3152C371.29 69.8245 371.374 69.9918 372.545 70.6609C373.256 71.0373 373.925 71.7065 374.05 72.1247C374.845 74.5922 363.177 89.3972 351.383 100.856C340.049 111.856 331.267 117.543 323.906 118.589C322.442 118.798 322.317 118.714 322.568 117.878C323.404 115.16 328.548 107.924 346.448 84.2531C355.314 72.5429 361.337 64.3876 362.215 62.9657C362.34 62.7148 362.173 62.1292 361.838 61.6274L361.211 60.7073L358.995 61.962C357.782 62.6729 356.402 63.2166 355.942 63.2166C355.105 63.2166 353.976 62.2129 353.641 61.1673C353.558 60.8746 352.136 62.5056 350.379 64.9313C348.706 67.3152 345.026 72.2083 342.224 75.7632C339.464 79.3181 335.951 83.8349 334.487 85.7587C324.031 99.2253 310.481 112.692 302.577 117.292C300.067 118.798 297.893 119.174 297.558 118.254C297.14 117.167 298.478 112.943 300.402 109.304C304.25 102.069 309.728 94.374 324.951 74.8013C333.316 64.0949 334.905 61.8365 334.487 61.3346C333.818 60.4982 333.065 60.54 332.354 61.4183C331.517 62.3802 328.632 63.6348 327.126 63.6348C325.746 63.6348 324.617 62.7148 325.077 61.962C325.202 61.7528 325.161 61.5437 324.951 61.5437C324.742 61.5437 323.99 62.3802 323.279 63.3839C322.526 64.4295 318.887 68.988 315.123 73.5466C311.401 78.1052 306.508 84.2531 304.208 87.1806C296.094 97.6361 283.088 108.593 271.294 114.825C267.028 117.083 261.968 118.84 259.667 118.84C257.994 118.84 257.953 118.798 257.953 117.46C257.953 113.863 262.386 104.579 268.492 95.3359C270.332 92.492 271.879 90.15 271.921 90.1082C272.005 90.0245 273.552 89.6899 275.476 89.3554C287.563 87.0551 298.562 80.6146 303.748 72.7938C306.968 67.9843 307.135 64.764 304.25 62.6311C302.66 61.4601 297.934 61.2092 293.794 62.1292C289.695 63.0493 282.46 66.6878 278.027 70.0336C274.18 72.9611 266.693 80.4473 263.933 84.1276C257.033 93.2866 253.98 96.7578 246.786 103.826C238.547 111.856 229.472 118.422 226.586 118.422C225.541 118.422 225.541 118.38 226.628 116.205C228.008 113.487 231.103 109.179 246.619 88.5189C254.565 77.938 262.553 67.1897 264.351 64.6804L267.655 60.08L266.359 59.9545C265.355 59.829 264.686 60.1218 263.599 61.0837C261.717 62.7148 259.249 63.5094 257.994 62.8402C257.534 62.5475 257.116 62.0874 257.116 61.7528C257.116 61.4183 256.949 61.1255 256.74 61.1255C256.531 61.1255 251.805 67.1897 246.201 74.5922C240.596 81.9947 234.198 90.2336 231.981 92.8684C227.757 97.9289 218.682 107.046 214.123 110.81C209.105 114.95 203.375 118.422 201.535 118.422C200.782 118.422 200.74 118.296 201.117 117.292C201.953 115.118 206.177 109.179 222.362 87.557C239.007 65.3077 242.478 60.5818 242.478 60.1218C242.478 59.4108 240.136 60.0381 238.798 61.0837C236.707 62.7566 233.947 63.5512 233.027 62.7566C232.65 62.4638 232.232 61.8365 232.065 61.4183C231.856 60.8328 230.141 62.8402 224.077 70.8282C205.424 95.5032 199.653 102.446 192.083 109.304C185.893 114.909 180.666 118.422 178.491 118.422H177.654L178.533 116.623C179.996 113.779 183.091 109.388 192.25 97.1342C204.839 80.3636 239.635 32.812 245.741 24.0712C246.41 23.1093 246.493 22.6493 246.159 22.3147C245.406 21.5619 244.821 21.6874 243.691 22.9002ZM300.904 64.9313C303.079 69.1135 295.132 79.3599 286.935 82.9148C282.669 84.7968 274.263 87.3897 274.263 86.8042C274.263 86.2605 282.502 76.5578 285.89 73.0866C290.574 68.3607 294.421 65.4332 297.433 64.3876C299.942 63.5512 300.235 63.593 300.904 64.9313Z" fill="#154183"/>
<path d="M482.29 36.4909C480.241 38.7492 476.309 39.6693 475.347 38.1219C475.055 37.6619 474.678 37.2855 474.511 37.2855C474.344 37.2855 472.294 39.8366 469.994 42.9314L465.812 48.5774H459.999C455.231 48.5774 454.018 48.7029 453.516 49.2466C453.14 49.5811 452.847 50.0412 452.847 50.2503C452.847 51.0031 454.102 51.8395 455.733 52.0905C459.539 52.676 458.87 56.44 453.516 64.8462C451.509 67.9828 438.67 85.1298 433.149 92.0723C423.948 103.657 407.847 117.416 402.452 118.295L400.904 118.546L401.824 116.705C403.414 113.569 406.383 109.428 423.697 86.259C432.94 73.9215 441.137 62.9224 441.89 61.835L443.27 59.8694H441.974C441.137 59.8694 440.092 60.3294 439.088 61.124C436.16 63.466 433.191 63.6333 432.396 61.4586C432.145 60.7476 431.434 61.5422 427.629 66.6027L423.154 72.5832V69.9485C423.154 66.4354 421.983 64.3443 419.181 62.9224C417.591 62.0859 412.071 62.1277 408.725 63.006C405.212 63.9261 398.395 67.3555 394.924 69.9485C388.818 74.5071 381.624 82.7042 377.024 90.3158C369.161 103.322 367.74 116.747 373.804 120.846C374.975 121.64 375.602 121.808 377.066 121.599C380.83 121.097 387.103 116.873 396.011 108.801L399.022 106.124L398.102 107.839C395.886 112.272 395.593 116.496 397.349 119.131C399.148 121.808 401.908 121.975 406.55 119.675C409.603 118.169 416.629 113.025 420.686 109.261L423.446 106.752L422.401 109.345C421.104 112.481 420.77 115.827 421.481 117.667C424.325 124.861 432.187 121.473 446.909 106.668C452.011 101.524 452.429 101.189 451.885 102.737C450.003 108.174 449.92 114.029 451.76 117.751C453.684 121.64 455.984 122.393 461.588 121.013C466.188 119.842 472.462 116.747 478.777 112.481C486.639 107.254 493.958 100.98 500.273 94.2052C503.075 91.1522 513.364 77.6437 517.42 71.705L519.47 68.6938L521.812 68.4429C523.861 68.2338 529.089 67.3555 532.309 66.6445L533.355 66.4354L532.1 67.941C531.389 68.7356 528.587 71.8304 525.868 74.7998C517.295 83.9588 512.444 90.4831 508.972 97.3C504.916 105.33 503.494 111.938 504.748 116.998C505.71 120.72 509.223 123.021 512.569 122.1C518.55 120.469 533.355 106.166 545.19 90.5249C546.612 88.6429 547.783 87.0118 547.783 86.8864C547.783 86.7609 547.072 86.6354 546.152 86.6354C544.605 86.6354 544.396 86.8027 542.095 89.8557C535.237 99.0566 523.359 111.812 517.671 116.078C514.702 118.295 511.607 119.884 510.98 119.466C509.642 118.629 511.482 112.147 514.953 105.539C518.968 97.9692 521.979 93.9125 532.309 82.0768C540.046 73.2106 542.388 69.6557 542.43 66.6027C542.472 64.3443 541.761 63.2988 539.795 62.7969C537.788 62.2532 536.575 62.4205 528.796 64.3025C525.576 65.0971 522.606 65.7244 522.188 65.7244C521.561 65.7244 521.644 65.3062 522.899 62.7133C524.614 59.1166 524.823 56.7745 523.485 55.1017C522.397 53.7215 520.181 53.5961 518.926 54.8507C518.173 55.6035 518.09 56.2308 518.09 60.6222C518.09 65.5153 518.09 65.599 516.626 67.9828C513.155 73.7124 501.737 88.6011 496.719 93.9543C484.548 106.752 465.728 118.838 457.824 118.838C456.277 118.838 456.193 118.797 456.193 117.458C456.193 113.862 460.626 104.577 466.732 95.3344C468.572 92.4905 470.12 90.1485 470.162 90.1067C470.245 90.023 471.793 89.6884 473.716 89.3539C483.336 87.5137 492.745 82.8715 498.224 77.2255C503.87 71.454 505.125 64.3443 500.943 62.1696C499.395 61.375 495.255 61.375 491.742 62.1696C487.894 63.0896 480.45 66.8536 476.268 70.0321C471.5 73.6706 464.767 80.6967 459.957 87.0536C447.87 103.113 433.944 116.538 427.42 118.42C424.241 119.298 426.207 116.204 444.316 92.0305C448.874 85.9245 457.448 74.3398 463.345 66.3099L474.051 51.7141L479.739 51.8395C485.928 52.0068 487.141 51.7141 487.141 50.0412C487.141 48.4101 485.97 48.1174 481.077 48.4101C478.651 48.5774 476.686 48.5774 476.686 48.4101C476.686 48.2847 478.568 45.5662 480.868 42.4296C484.046 38.0383 484.925 36.5745 484.548 36.1563C483.921 35.3617 483.21 35.4871 482.29 36.4909ZM462.466 53.1778C461.964 53.847 461.504 54.4325 461.421 54.4325C461.337 54.4325 461.086 53.847 460.835 53.1778C460.417 51.9232 460.417 51.9232 461.881 51.9232H463.345L462.466 53.1778ZM498.433 64.4698C500.064 65.5153 498.057 71.5377 494.753 75.5108C491.24 79.7348 486.932 82.5369 480.45 84.7953C477.355 85.8826 472.504 87.0955 472.504 86.8027C472.504 86.7191 474.135 84.628 476.1 82.1605C483.21 73.2524 490.989 66.2263 495.338 64.6789C497.304 63.9679 497.639 63.9679 498.433 64.4698ZM418.511 65.9335C422.15 67.7737 420.979 73.4197 415.082 82.3696C404.961 97.8437 383.005 118.838 376.94 118.838C375.978 118.838 375.895 118.671 375.895 117.207C375.895 110.809 385.305 93.3688 395.718 80.3621C404.543 69.4048 413.827 63.5079 418.511 65.9335Z" fill="#154183"/>
</svg>
