<svg width="239" height="78" viewBox="0 0 239 78" fill="none" xmlns="http://www.w3.org/2000/svg">
<rect x="1.31308" y="1.31308" width="235.707" height="75.3738" rx="37.6869" fill="#FDF8ED" stroke="#154183" stroke-width="2.62617"/>
<path d="M36.1367 36.6264L47.7158 23.639H54.2486L43.8039 35.0616L55.031 52H48.4199L40.0485 39.2082L36.1367 43.4721V52H30.5427V23.639H36.1367V36.6264ZM54.8222 23.639H75.4768V28.1768H60.4162V35.2181H74.6554V39.7559H60.4162V47.4622H75.4768V52H54.8222V23.639ZM100.52 23.639V52H94.9261V39.7559H82.2126V52H76.6186V23.639H82.2126V35.2181H94.9261V23.639H100.52ZM108.861 47.4622H122.669V52H103.267V23.639H108.861V47.4622ZM131.249 23.639H136.882L147.483 52H141.419L139.424 46.2496H128.393L126.398 52H120.687L131.249 23.639ZM129.997 41.6727H137.821L133.909 30.4848L129.997 41.6727ZM164.287 52L152.943 30.3674V52H147.662V23.639H154.938L166.282 45.2716V23.639H171.563V52H164.287ZM179.904 52H174.31V23.639H179.904V52ZM182.111 23.639H188.175V29.9371L184.967 36.157H181.877L184.771 29.5068H182.111V23.639ZM197.641 39.5603C195.086 39.0648 193.025 38.152 191.461 36.822C189.922 35.4919 189.153 33.6664 189.153 31.3454C189.153 29.5459 189.74 28.0073 190.913 26.7294C192.113 25.4254 193.534 24.4996 195.177 23.952C196.846 23.4043 198.606 23.1305 200.458 23.1305C203.483 23.1305 206.065 23.952 208.204 25.5949C210.342 27.2118 211.476 29.3503 211.607 32.0104H206.208C206 30.4717 205.322 29.3503 204.174 28.6462C203.053 27.9421 201.736 27.59 200.223 27.59C198.763 27.59 197.485 27.8899 196.39 28.4897C195.294 29.0635 194.747 29.9371 194.747 31.1107C194.747 32.9623 196.064 34.1358 198.698 34.6313L202.414 35.2964C203.431 35.4789 204.357 35.6875 205.191 35.9223C206.052 36.157 206.926 36.509 207.812 36.9785C208.699 37.4218 209.442 37.9434 210.042 38.5432C210.642 39.1169 211.137 39.8602 211.529 40.773C211.92 41.6857 212.115 42.7028 212.115 43.8242C212.115 46.5625 210.968 48.701 208.673 50.2397C206.404 51.7522 203.718 52.5085 200.615 52.5085C197.12 52.5085 194.29 51.6349 192.126 49.8876C189.987 48.1142 188.788 45.7019 188.527 42.6507H193.925C194.473 46.2496 196.768 48.049 200.81 48.049C202.323 48.049 203.64 47.7361 204.761 47.1102C205.909 46.4843 206.482 45.4802 206.482 44.098C206.482 42.9766 206.026 42.1291 205.113 41.5553C204.226 40.9816 202.936 40.5382 201.24 40.2253L197.641 39.5603Z" fill="#154183"/>
<path d="M28 57.8678H210.668V60.9973H28V57.8678Z" fill="#154183"/>
</svg>
